solid OpenSCAD_Model
  facet normal -0.690083 -0.0725306 -0.720087
    outer loop
      vertex 13.8 0 1.15
      vertex 13.6044 2.66667 1.06883
      vertex 15 0 0
    endloop
  endfacet
  facet normal -0.690081 -0.0725305 -0.720088
    outer loop
      vertex 13.6044 2.66667 1.06883
      vertex 13.8 0 1.15
      vertex 13.5197 2.66667 1.15
    endloop
  endfacet
  facet normal -0.690083 -0.0725307 -0.720087
    outer loop
      vertex 14.7197 2.66667 0
      vertex 15 0 0
      vertex 13.6044 2.66667 1.06883
    endloop
  endfacet
  facet normal 0.690083 0.0725307 -0.720087
    outer loop
      vertex -13.8 0 1.15
      vertex -13.4984 -2.86918 1.15
      vertex -15 0 0
    endloop
  endfacet
  facet normal 0 0.693884 -0.720087
    outer loop
      vertex 1.56793 -14.9178 0
      vertex -1.44249 -13.7244 1.15
      vertex 1.44249 -13.7244 1.15
    endloop
  endfacet
  facet normal 0 0.693884 -0.720087
    outer loop
      vertex -1.44249 -13.7244 1.15
      vertex 1.56793 -14.9178 0
      vertex -1.56793 -14.9178 0
    endloop
  endfacet
  facet normal 0.659923 0.214422 -0.720087
    outer loop
      vertex -13.4984 -2.86918 1.15
      vertex -12.6069 -5.61297 1.15
      vertex -14.6722 -3.11868 0
    endloop
  endfacet
  facet normal 0.659923 0.214422 -0.720087
    outer loop
      vertex -12.6069 -5.61297 1.15
      vertex -13.7032 -6.10105 0
      vertex -14.6722 -3.11868 0
    endloop
  endfacet
  facet normal -0.515656 0.464299 -0.720087
    outer loop
      vertex 11.1644 -8.11144 1.15
      vertex 10.037 -11.1472 0
      vertex 9.234 -10.2554 1.15
    endloop
  endfacet
  facet normal -0.600921 0.346942 -0.720087
    outer loop
      vertex 12.6069 -5.61297 1.15
      vertex 12.1353 -8.81678 0
      vertex 11.1644 -8.11144 1.15
    endloop
  endfacet
  facet normal -0.659923 0.214422 -0.720087
    outer loop
      vertex 13.4984 -2.86918 1.15
      vertex 14.6722 -3.11868 0
      vertex 12.6069 -5.61297 1.15
    endloop
  endfacet
  facet normal 0.690083 -0.0725307 -0.720087
    outer loop
      vertex -14.7197 2.66667 0
      vertex -13.6044 2.66667 1.06883
      vertex -15 0 0
    endloop
  endfacet
  facet normal 0.515656 0.464299 -0.720087
    outer loop
      vertex -11.1644 -8.11144 1.15
      vertex -10.037 -11.1472 0
      vertex -12.1353 -8.81678 0
    endloop
  endfacet
  facet normal 0.690083 0.0725307 -0.720087
    outer loop
      vertex -13.4984 -2.86918 1.15
      vertex -14.6722 -3.11868 0
      vertex -15 0 0
    endloop
  endfacet
  facet normal 0.144267 0.678721 -0.720087
    outer loop
      vertex -1.44249 -13.7244 1.15
      vertex -1.56793 -14.9178 0
      vertex -4.63525 -14.2658 0
    endloop
  endfacet
  facet normal 0.282228 0.633895 -0.720087
    outer loop
      vertex -4.26443 -13.1246 1.15
      vertex -4.63525 -14.2658 0
      vertex -6.9 -11.9511 1.15
    endloop
  endfacet
  facet normal 0.515656 0.464299 -0.720087
    outer loop
      vertex -9.234 -10.2554 1.15
      vertex -10.037 -11.1472 0
      vertex -11.1644 -8.11144 1.15
    endloop
  endfacet
  facet normal -0.144267 0.678721 -0.720087
    outer loop
      vertex 4.63525 -14.2658 0
      vertex 1.56793 -14.9178 0
      vertex 1.44249 -13.7244 1.15
    endloop
  endfacet
  facet normal -0.144267 0.678721 -0.720087
    outer loop
      vertex 4.26443 -13.1246 1.15
      vertex 4.63525 -14.2658 0
      vertex 1.44249 -13.7244 1.15
    endloop
  endfacet
  facet normal -0.407855 0.561364 -0.720087
    outer loop
      vertex 10.037 -11.1472 0
      vertex 7.5 -12.9904 0
      vertex 6.9 -11.9511 1.15
    endloop
  endfacet
  facet normal -0.600921 0.346942 -0.720087
    outer loop
      vertex 12.6069 -5.61297 1.15
      vertex 13.7032 -6.10105 0
      vertex 12.1353 -8.81678 0
    endloop
  endfacet
  facet normal -0.515656 0.464299 -0.720087
    outer loop
      vertex 11.1644 -8.11144 1.15
      vertex 12.1353 -8.81678 0
      vertex 10.037 -11.1472 0
    endloop
  endfacet
  facet normal -0.659923 0.214422 -0.720087
    outer loop
      vertex 14.6722 -3.11868 0
      vertex 13.7032 -6.10105 0
      vertex 12.6069 -5.61297 1.15
    endloop
  endfacet
  facet normal 0.690081 -0.0725305 -0.720088
    outer loop
      vertex -13.8 0 1.15
      vertex -13.6044 2.66667 1.06883
      vertex -13.5197 2.66667 1.15
    endloop
  endfacet
  facet normal 0.690083 -0.0725306 -0.720087
    outer loop
      vertex -13.6044 2.66667 1.06883
      vertex -13.8 0 1.15
      vertex -15 0 0
    endloop
  endfacet
  facet normal 0.144267 0.678721 -0.720087
    outer loop
      vertex -4.26443 -13.1246 1.15
      vertex -1.44249 -13.7244 1.15
      vertex -4.63525 -14.2658 0
    endloop
  endfacet
  facet normal 0.600921 0.346942 -0.720087
    outer loop
      vertex -12.6069 -5.61297 1.15
      vertex -12.1353 -8.81678 0
      vertex -13.7032 -6.10105 0
    endloop
  endfacet
  facet normal -0.407855 0.561364 -0.720087
    outer loop
      vertex 9.234 -10.2554 1.15
      vertex 10.037 -11.1472 0
      vertex 6.9 -11.9511 1.15
    endloop
  endfacet
  facet normal -0.282228 0.633895 -0.720087
    outer loop
      vertex 6.9 -11.9511 1.15
      vertex 4.63525 -14.2658 0
      vertex 4.26443 -13.1246 1.15
    endloop
  endfacet
  facet normal -0.282228 0.633895 -0.720087
    outer loop
      vertex 6.9 -11.9511 1.15
      vertex 7.5 -12.9904 0
      vertex 4.63525 -14.2658 0
    endloop
  endfacet
  facet normal -0.690083 0.0725307 -0.720087
    outer loop
      vertex 15 0 0
      vertex 14.6722 -3.11868 0
      vertex 13.4984 -2.86918 1.15
    endloop
  endfacet
  facet normal -0.690083 0.0725307 -0.720087
    outer loop
      vertex 13.8 0 1.15
      vertex 15 0 0
      vertex 13.4984 -2.86918 1.15
    endloop
  endfacet
  facet normal 0.407855 0.561364 -0.720087
    outer loop
      vertex -9.234 -10.2554 1.15
      vertex -6.9 -11.9511 1.15
      vertex -10.037 -11.1472 0
    endloop
  endfacet
  facet normal 0.407855 0.561364 -0.720087
    outer loop
      vertex -6.9 -11.9511 1.15
      vertex -7.5 -12.9904 0
      vertex -10.037 -11.1472 0
    endloop
  endfacet
  facet normal 0.282228 0.633895 -0.720087
    outer loop
      vertex -6.9 -11.9511 1.15
      vertex -4.63525 -14.2658 0
      vertex -7.5 -12.9904 0
    endloop
  endfacet
  facet normal 0.600921 0.346942 -0.720087
    outer loop
      vertex -11.1644 -8.11144 1.15
      vertex -12.1353 -8.81678 0
      vertex -12.6069 -5.61297 1.15
    endloop
  endfacet
  facet normal -0.690083 -0.0725306 0.720087
    outer loop
      vertex 13.6044 2.66667 -1.06883
      vertex 13.8 0 -1.15
      vertex 15 0 0
    endloop
  endfacet
  facet normal -0.690081 -0.0725305 0.720088
    outer loop
      vertex 13.8 0 -1.15
      vertex 13.6044 2.66667 -1.06883
      vertex 13.5197 2.66667 -1.15
    endloop
  endfacet
  facet normal -0.407855 0.561364 0.720087
    outer loop
      vertex 10.037 -11.1472 0
      vertex 9.234 -10.2554 -1.15
      vertex 6.9 -11.9511 -1.15
    endloop
  endfacet
  facet normal -0.659923 0.214422 0.720087
    outer loop
      vertex 14.6722 -3.11868 0
      vertex 13.4984 -2.86918 -1.15
      vertex 12.6069 -5.61297 -1.15
    endloop
  endfacet
  facet normal -0.282228 0.633895 0.720087
    outer loop
      vertex 7.5 -12.9904 0
      vertex 6.9 -11.9511 -1.15
      vertex 4.63525 -14.2658 0
    endloop
  endfacet
  facet normal 0.690083 0.0725307 0.720087
    outer loop
      vertex -13.4984 -2.86918 -1.15
      vertex -13.8 0 -1.15
      vertex -15 0 0
    endloop
  endfacet
  facet normal -0.690083 -0.0725307 0.720087
    outer loop
      vertex 15 0 0
      vertex 14.7197 2.66667 0
      vertex 13.6044 2.66667 -1.06883
    endloop
  endfacet
  facet normal -0.659923 0.214422 0.720087
    outer loop
      vertex 13.7032 -6.10105 0
      vertex 14.6722 -3.11868 0
      vertex 12.6069 -5.61297 -1.15
    endloop
  endfacet
  facet normal -0.600921 0.346942 0.720087
    outer loop
      vertex 13.7032 -6.10105 0
      vertex 12.6069 -5.61297 -1.15
      vertex 12.1353 -8.81678 0
    endloop
  endfacet
  facet normal -0.407855 0.561364 0.720087
    outer loop
      vertex 7.5 -12.9904 0
      vertex 10.037 -11.1472 0
      vertex 6.9 -11.9511 -1.15
    endloop
  endfacet
  facet normal -0 0.693884 0.720087
    outer loop
      vertex -1.44249 -13.7244 -1.15
      vertex 1.56793 -14.9178 0
      vertex 1.44249 -13.7244 -1.15
    endloop
  endfacet
  facet normal 0 0.693884 0.720087
    outer loop
      vertex 1.56793 -14.9178 0
      vertex -1.44249 -13.7244 -1.15
      vertex -1.56793 -14.9178 0
    endloop
  endfacet
  facet normal -0.144267 0.678721 0.720087
    outer loop
      vertex 1.56793 -14.9178 0
      vertex 4.63525 -14.2658 0
      vertex 1.44249 -13.7244 -1.15
    endloop
  endfacet
  facet normal 0.407855 0.561364 0.720087
    outer loop
      vertex -7.5 -12.9904 0
      vertex -6.9 -11.9511 -1.15
      vertex -10.037 -11.1472 0
    endloop
  endfacet
  facet normal -0.690083 0.0725307 0.720087
    outer loop
      vertex 15 0 0
      vertex 13.8 0 -1.15
      vertex 13.4984 -2.86918 -1.15
    endloop
  endfacet
  facet normal -0.690083 0.0725307 0.720087
    outer loop
      vertex 14.6722 -3.11868 0
      vertex 15 0 0
      vertex 13.4984 -2.86918 -1.15
    endloop
  endfacet
  facet normal -0.600921 0.346942 0.720087
    outer loop
      vertex 12.1353 -8.81678 0
      vertex 12.6069 -5.61297 -1.15
      vertex 11.1644 -8.11144 -1.15
    endloop
  endfacet
  facet normal -0.144267 0.678721 0.720087
    outer loop
      vertex 4.63525 -14.2658 0
      vertex 4.26443 -13.1246 -1.15
      vertex 1.44249 -13.7244 -1.15
    endloop
  endfacet
  facet normal 0.659923 0.214422 0.720087
    outer loop
      vertex -13.7032 -6.10105 0
      vertex -12.6069 -5.61297 -1.15
      vertex -14.6722 -3.11868 0
    endloop
  endfacet
  facet normal 0.690083 0.0725307 0.720087
    outer loop
      vertex -14.6722 -3.11868 0
      vertex -13.4984 -2.86918 -1.15
      vertex -15 0 0
    endloop
  endfacet
  facet normal 0.515656 0.464299 0.720087
    outer loop
      vertex -10.037 -11.1472 0
      vertex -9.234 -10.2554 -1.15
      vertex -11.1644 -8.11144 -1.15
    endloop
  endfacet
  facet normal 0.144267 0.678721 0.720087
    outer loop
      vertex -1.56793 -14.9178 0
      vertex -1.44249 -13.7244 -1.15
      vertex -4.63525 -14.2658 0
    endloop
  endfacet
  facet normal -0.515656 0.464299 0.720087
    outer loop
      vertex 12.1353 -8.81678 0
      vertex 11.1644 -8.11144 -1.15
      vertex 10.037 -11.1472 0
    endloop
  endfacet
  facet normal -0.515656 0.464299 0.720087
    outer loop
      vertex 10.037 -11.1472 0
      vertex 11.1644 -8.11144 -1.15
      vertex 9.234 -10.2554 -1.15
    endloop
  endfacet
  facet normal -0.282228 0.633895 0.720087
    outer loop
      vertex 4.63525 -14.2658 0
      vertex 6.9 -11.9511 -1.15
      vertex 4.26443 -13.1246 -1.15
    endloop
  endfacet
  facet normal 0.659923 0.214422 0.720087
    outer loop
      vertex -12.6069 -5.61297 -1.15
      vertex -13.4984 -2.86918 -1.15
      vertex -14.6722 -3.11868 0
    endloop
  endfacet
  facet normal 0.515656 0.464299 0.720087
    outer loop
      vertex -10.037 -11.1472 0
      vertex -11.1644 -8.11144 -1.15
      vertex -12.1353 -8.81678 0
    endloop
  endfacet
  facet normal 0.407855 0.561364 0.720087
    outer loop
      vertex -6.9 -11.9511 -1.15
      vertex -9.234 -10.2554 -1.15
      vertex -10.037 -11.1472 0
    endloop
  endfacet
  facet normal 0.282228 0.633895 0.720087
    outer loop
      vertex -4.63525 -14.2658 0
      vertex -6.9 -11.9511 -1.15
      vertex -7.5 -12.9904 0
    endloop
  endfacet
  facet normal 0.144267 0.678721 0.720087
    outer loop
      vertex -1.44249 -13.7244 -1.15
      vertex -4.26443 -13.1246 -1.15
      vertex -4.63525 -14.2658 0
    endloop
  endfacet
  facet normal 0.282228 0.633895 0.720087
    outer loop
      vertex -4.63525 -14.2658 0
      vertex -4.26443 -13.1246 -1.15
      vertex -6.9 -11.9511 -1.15
    endloop
  endfacet
  facet normal 0.690081 -0.0725305 0.720088
    outer loop
      vertex -13.6044 2.66667 -1.06883
      vertex -13.8 0 -1.15
      vertex -13.5197 2.66667 -1.15
    endloop
  endfacet
  facet normal 0.690083 -0.0725306 0.720087
    outer loop
      vertex -13.8 0 -1.15
      vertex -13.6044 2.66667 -1.06883
      vertex -15 0 0
    endloop
  endfacet
  facet normal 0.690083 -0.0725307 0.720087
    outer loop
      vertex -13.6044 2.66667 -1.06883
      vertex -14.7197 2.66667 0
      vertex -15 0 0
    endloop
  endfacet
  facet normal 0.600921 0.346942 0.720087
    outer loop
      vertex -12.1353 -8.81678 0
      vertex -11.1644 -8.11144 -1.15
      vertex -12.6069 -5.61297 -1.15
    endloop
  endfacet
  facet normal 0.600921 0.346942 0.720087
    outer loop
      vertex -12.1353 -8.81678 0
      vertex -12.6069 -5.61297 -1.15
      vertex -13.7032 -6.10105 0
    endloop
  endfacet
  facet normal -0.994522 0.104529 0
    outer loop
      vertex 13.4984 -2.86918 -2.35
      vertex 13.8 0 -1.15
      vertex 13.8 0 -2.35
    endloop
  endfacet
  facet normal -0.994522 0.104529 0
    outer loop
      vertex 13.8 0 -1.15
      vertex 13.4984 -2.86918 -2.35
      vertex 13.4984 -2.86918 -1.15
    endloop
  endfacet
  facet normal -0.994522 0.104529 0
    outer loop
      vertex 13.4984 -2.86918 1.15
      vertex 13.8 0 2.35
      vertex 13.8 0 1.15
    endloop
  endfacet
  facet normal -0.994522 0.104529 0
    outer loop
      vertex 13.8 0 2.35
      vertex 13.4984 -2.86918 1.15
      vertex 13.4984 -2.86918 2.35
    endloop
  endfacet
  facet normal 0.994522 -0.104529 0
    outer loop
      vertex -13.8 0 2.35
      vertex -13.5197 2.66667 1.15
      vertex -13.5197 2.66667 2.35
    endloop
  endfacet
  facet normal 0.994522 -0.104529 0
    outer loop
      vertex -13.5197 2.66667 1.15
      vertex -13.8 0 2.35
      vertex -13.8 0 1.15
    endloop
  endfacet
  facet normal 0.994522 -0.104529 0
    outer loop
      vertex -13.8 0 -1.15
      vertex -13.5197 2.66667 -2.35
      vertex -13.5197 2.66667 -1.15
    endloop
  endfacet
  facet normal 0.994522 -0.104529 0
    outer loop
      vertex -13.5197 2.66667 -2.35
      vertex -13.8 0 -1.15
      vertex -13.8 0 -2.35
    endloop
  endfacet
  facet normal -0.994522 -0.104529 0
    outer loop
      vertex 13.8 0 -2.35
      vertex 13.5197 2.66667 -1.15
      vertex 13.5197 2.66667 -2.35
    endloop
  endfacet
  facet normal -0.994522 -0.104529 0
    outer loop
      vertex 13.5197 2.66667 -1.15
      vertex 13.8 0 -2.35
      vertex 13.8 0 -1.15
    endloop
  endfacet
  facet normal -0.994522 -0.104529 0
    outer loop
      vertex 13.8 0 1.15
      vertex 13.5197 2.66667 2.35
      vertex 13.5197 2.66667 1.15
    endloop
  endfacet
  facet normal -0.994522 -0.104529 0
    outer loop
      vertex 13.5197 2.66667 2.35
      vertex 13.8 0 1.15
      vertex 13.8 0 2.35
    endloop
  endfacet
  facet normal -0.951057 0.309017 0
    outer loop
      vertex 12.6069 -5.61297 -2.35
      vertex 13.4984 -2.86918 -1.15
      vertex 13.4984 -2.86918 -2.35
    endloop
  endfacet
  facet normal -0.951057 0.309017 0
    outer loop
      vertex 13.4984 -2.86918 -1.15
      vertex 12.6069 -5.61297 -2.35
      vertex 12.6069 -5.61297 -1.15
    endloop
  endfacet
  facet normal -0.951057 0.309017 0
    outer loop
      vertex 12.6069 -5.61297 1.15
      vertex 13.4984 -2.86918 2.35
      vertex 13.4984 -2.86918 1.15
    endloop
  endfacet
  facet normal -0.951057 0.309017 0
    outer loop
      vertex 13.4984 -2.86918 2.35
      vertex 12.6069 -5.61297 1.15
      vertex 12.6069 -5.61297 2.35
    endloop
  endfacet
  facet normal 0.866025 0.5 0
    outer loop
      vertex -11.1644 -8.11144 2.35
      vertex -12.6069 -5.61297 1.15
      vertex -12.6069 -5.61297 2.35
    endloop
  endfacet
  facet normal 0.866025 0.5 0
    outer loop
      vertex -12.6069 -5.61297 1.15
      vertex -11.1644 -8.11144 2.35
      vertex -11.1644 -8.11144 1.15
    endloop
  endfacet
  facet normal 0.866025 0.5 0
    outer loop
      vertex -11.1644 -8.11144 -1.15
      vertex -12.6069 -5.61297 -2.35
      vertex -12.6069 -5.61297 -1.15
    endloop
  endfacet
  facet normal 0.866025 0.5 0
    outer loop
      vertex -12.6069 -5.61297 -2.35
      vertex -11.1644 -8.11144 -1.15
      vertex -11.1644 -8.11144 -2.35
    endloop
  endfacet
  facet normal -0.587785 0.809017 0
    outer loop
      vertex 9.234 -10.2554 -2.35
      vertex 6.9 -11.9511 -1.15
      vertex 9.234 -10.2554 -1.15
    endloop
  endfacet
  facet normal -0.587785 0.809017 0
    outer loop
      vertex 6.9 -11.9511 -1.15
      vertex 9.234 -10.2554 -2.35
      vertex 6.9 -11.9511 -2.35
    endloop
  endfacet
  facet normal -0.587785 0.809017 0
    outer loop
      vertex 9.234 -10.2554 1.15
      vertex 6.9 -11.9511 2.35
      vertex 9.234 -10.2554 2.35
    endloop
  endfacet
  facet normal -0.587785 0.809017 0
    outer loop
      vertex 6.9 -11.9511 2.35
      vertex 9.234 -10.2554 1.15
      vertex 6.9 -11.9511 1.15
    endloop
  endfacet
  facet normal -0 0 1
    outer loop
      vertex -15.7197 2.66667 2.35
      vertex -13.8 0 2.35
      vertex -13.5197 2.66667 2.35
    endloop
  endfacet
  facet normal 0 0 1
    outer loop
      vertex -13.8 0 2.35
      vertex -15.6504 -3.32659 2.35
      vertex -14.6167 -6.50779 2.35
    endloop
  endfacet
  facet normal 0 0 1
    outer loop
      vertex -13.8 0 2.35
      vertex -15.7197 2.66667 2.35
      vertex -16 0 2.35
    endloop
  endfacet
  facet normal 0 0 1
    outer loop
      vertex -13.8 0 2.35
      vertex -16 0 2.35
      vertex -15.6504 -3.32659 2.35
    endloop
  endfacet
  facet normal 0 0 1
    outer loop
      vertex 13.8 0 2.35
      vertex 16 0 2.35
      vertex 15.7197 2.66667 2.35
    endloop
  endfacet
  facet normal 0 0 1
    outer loop
      vertex 16 0 2.35
      vertex 13.8 0 2.35
      vertex 15.6504 -3.32659 2.35
    endloop
  endfacet
  facet normal 0 0 1
    outer loop
      vertex 15.6504 -3.32659 2.35
      vertex 13.8 0 2.35
      vertex 13.4984 -2.86918 2.35
    endloop
  endfacet
  facet normal 0 -0 1
    outer loop
      vertex 13.8 0 2.35
      vertex 15.7197 2.66667 2.35
      vertex 13.5197 2.66667 2.35
    endloop
  endfacet
  facet normal 0 0 1
    outer loop
      vertex 15.6504 -3.32659 2.35
      vertex 13.4984 -2.86918 2.35
      vertex 14.6167 -6.50779 2.35
    endloop
  endfacet
  facet normal -0 0 1
    outer loop
      vertex 12.6069 -5.61297 2.35
      vertex 14.6167 -6.50779 2.35
      vertex 13.4984 -2.86918 2.35
    endloop
  endfacet
  facet normal 0 0 1
    outer loop
      vertex 11.1644 -8.11144 2.35
      vertex 14.6167 -6.50779 2.35
      vertex 12.6069 -5.61297 2.35
    endloop
  endfacet
  facet normal 0 0 1
    outer loop
      vertex 9.234 -10.2554 2.35
      vertex 14.6167 -6.50779 2.35
      vertex 11.1644 -8.11144 2.35
    endloop
  endfacet
  facet normal 0 0 1
    outer loop
      vertex 2.35 -28 2.35
      vertex 9.234 -10.2554 2.35
      vertex 6.9 -11.9511 2.35
    endloop
  endfacet
  facet normal -0 0 1
    outer loop
      vertex 9.234 -10.2554 2.35
      vertex 2.35 -28 2.35
      vertex 14.6167 -6.50779 2.35
    endloop
  endfacet
  facet normal -0 0 1
    outer loop
      vertex 4.26443 -13.1246 2.35
      vertex 2.35 -28 2.35
      vertex 6.9 -11.9511 2.35
    endloop
  endfacet
  facet normal -0 0 1
    outer loop
      vertex 1.44249 -13.7244 2.35
      vertex 2.35 -28 2.35
      vertex 4.26443 -13.1246 2.35
    endloop
  endfacet
  facet normal -0 0 1
    outer loop
      vertex -1.44249 -13.7244 2.35
      vertex 2.35 -28 2.35
      vertex 1.44249 -13.7244 2.35
    endloop
  endfacet
  facet normal 0 0 1
    outer loop
      vertex -1.44249 -13.7244 2.35
      vertex -2.35 -28 2.35
      vertex 2.35 -28 2.35
    endloop
  endfacet
  facet normal 0 0 1
    outer loop
      vertex -4.26443 -13.1246 2.35
      vertex -2.35 -28 2.35
      vertex -1.44249 -13.7244 2.35
    endloop
  endfacet
  facet normal 0 0 1
    outer loop
      vertex -6.9 -11.9511 2.35
      vertex -2.35 -28 2.35
      vertex -4.26443 -13.1246 2.35
    endloop
  endfacet
  facet normal 0 0 1
    outer loop
      vertex -9.234 -10.2554 2.35
      vertex -2.35 -28 2.35
      vertex -6.9 -11.9511 2.35
    endloop
  endfacet
  facet normal 0 0 1
    outer loop
      vertex -14.6167 -6.50779 2.35
      vertex -9.234 -10.2554 2.35
      vertex -11.1644 -8.11144 2.35
    endloop
  endfacet
  facet normal -0 0 1
    outer loop
      vertex -14.6167 -6.50779 2.35
      vertex -11.1644 -8.11144 2.35
      vertex -12.6069 -5.61297 2.35
    endloop
  endfacet
  facet normal 0 0 1
    outer loop
      vertex -9.234 -10.2554 2.35
      vertex -14.6167 -6.50779 2.35
      vertex -2.35 -28 2.35
    endloop
  endfacet
  facet normal 0 0 1
    outer loop
      vertex -13.4984 -2.86918 2.35
      vertex -14.6167 -6.50779 2.35
      vertex -12.6069 -5.61297 2.35
    endloop
  endfacet
  facet normal 0 0 1
    outer loop
      vertex -14.6167 -6.50779 2.35
      vertex -13.4984 -2.86918 2.35
      vertex -13.8 0 2.35
    endloop
  endfacet
  facet normal -0.866025 0.5 0
    outer loop
      vertex 11.1644 -8.11144 -2.35
      vertex 12.6069 -5.61297 -1.15
      vertex 12.6069 -5.61297 -2.35
    endloop
  endfacet
  facet normal -0.866025 0.5 0
    outer loop
      vertex 12.6069 -5.61297 -1.15
      vertex 11.1644 -8.11144 -2.35
      vertex 11.1644 -8.11144 -1.15
    endloop
  endfacet
  facet normal -0.866025 0.5 0
    outer loop
      vertex 11.1644 -8.11144 1.15
      vertex 12.6069 -5.61297 2.35
      vertex 12.6069 -5.61297 1.15
    endloop
  endfacet
  facet normal -0.866025 0.5 0
    outer loop
      vertex 12.6069 -5.61297 2.35
      vertex 11.1644 -8.11144 1.15
      vertex 11.1644 -8.11144 2.35
    endloop
  endfacet
  facet normal 0 1 -0
    outer loop
      vertex 1.44249 -13.7244 1.15
      vertex -1.44249 -13.7244 2.35
      vertex 1.44249 -13.7244 2.35
    endloop
  endfacet
  facet normal 0 1 0
    outer loop
      vertex -1.44249 -13.7244 2.35
      vertex 1.44249 -13.7244 1.15
      vertex -1.44249 -13.7244 1.15
    endloop
  endfacet
  facet normal 0 1 -0
    outer loop
      vertex 1.44249 -13.7244 -2.35
      vertex -1.44249 -13.7244 -1.15
      vertex 1.44249 -13.7244 -1.15
    endloop
  endfacet
  facet normal 0 1 0
    outer loop
      vertex -1.44249 -13.7244 -1.15
      vertex 1.44249 -13.7244 -2.35
      vertex -1.44249 -13.7244 -2.35
    endloop
  endfacet
  facet normal 0 0 -1
    outer loop
      vertex 15.6504 -3.32659 -2.35
      vertex 13.4984 -2.86918 -2.35
      vertex 13.8 0 -2.35
    endloop
  endfacet
  facet normal 0 0 -1
    outer loop
      vertex 14.6167 -6.50779 -2.35
      vertex 12.6069 -5.61297 -2.35
      vertex 13.4984 -2.86918 -2.35
    endloop
  endfacet
  facet normal -0 0 -1
    outer loop
      vertex 14.6167 -6.50779 -2.35
      vertex 11.1644 -8.11144 -2.35
      vertex 12.6069 -5.61297 -2.35
    endloop
  endfacet
  facet normal 0 0 -1
    outer loop
      vertex 14.6167 -6.50779 -2.35
      vertex 9.234 -10.2554 -2.35
      vertex 11.1644 -8.11144 -2.35
    endloop
  endfacet
  facet normal 0 0 -1
    outer loop
      vertex 2.35 -28 -2.35
      vertex 9.234 -10.2554 -2.35
      vertex 14.6167 -6.50779 -2.35
    endloop
  endfacet
  facet normal 0 0 -1
    outer loop
      vertex 9.234 -10.2554 -2.35
      vertex 2.35 -28 -2.35
      vertex 6.9 -11.9511 -2.35
    endloop
  endfacet
  facet normal 0 0 -1
    outer loop
      vertex 2.35 -28 -2.35
      vertex 4.26443 -13.1246 -2.35
      vertex 6.9 -11.9511 -2.35
    endloop
  endfacet
  facet normal 0 0 -1
    outer loop
      vertex 2.35 -28 -2.35
      vertex 1.44249 -13.7244 -2.35
      vertex 4.26443 -13.1246 -2.35
    endloop
  endfacet
  facet normal 0 0 -1
    outer loop
      vertex 2.35 -28 -2.35
      vertex -1.44249 -13.7244 -2.35
      vertex 1.44249 -13.7244 -2.35
    endloop
  endfacet
  facet normal 0 0 -1
    outer loop
      vertex -2.35 -28 -2.35
      vertex -1.44249 -13.7244 -2.35
      vertex 2.35 -28 -2.35
    endloop
  endfacet
  facet normal 0 0 -1
    outer loop
      vertex -2.35 -28 -2.35
      vertex -4.26443 -13.1246 -2.35
      vertex -1.44249 -13.7244 -2.35
    endloop
  endfacet
  facet normal 0 0 -1
    outer loop
      vertex -2.35 -28 -2.35
      vertex -6.9 -11.9511 -2.35
      vertex -4.26443 -13.1246 -2.35
    endloop
  endfacet
  facet normal 0 0 -1
    outer loop
      vertex -2.35 -28 -2.35
      vertex -9.234 -10.2554 -2.35
      vertex -6.9 -11.9511 -2.35
    endloop
  endfacet
  facet normal 0 0 -1
    outer loop
      vertex -14.6167 -6.50779 -2.35
      vertex -9.234 -10.2554 -2.35
      vertex -2.35 -28 -2.35
    endloop
  endfacet
  facet normal 0 0 -1
    outer loop
      vertex -9.234 -10.2554 -2.35
      vertex -14.6167 -6.50779 -2.35
      vertex -11.1644 -8.11144 -2.35
    endloop
  endfacet
  facet normal 0 0 -1
    outer loop
      vertex -15.6504 -3.32659 -2.35
      vertex -13.4984 -2.86918 -2.35
      vertex -14.6167 -6.50779 -2.35
    endloop
  endfacet
  facet normal -0 0 -1
    outer loop
      vertex -12.6069 -5.61297 -2.35
      vertex -14.6167 -6.50779 -2.35
      vertex -13.4984 -2.86918 -2.35
    endloop
  endfacet
  facet normal 0 0 -1
    outer loop
      vertex -11.1644 -8.11144 -2.35
      vertex -14.6167 -6.50779 -2.35
      vertex -12.6069 -5.61297 -2.35
    endloop
  endfacet
  facet normal 0 0 -1
    outer loop
      vertex 13.8 0 -2.35
      vertex 16 0 -2.35
      vertex 15.6504 -3.32659 -2.35
    endloop
  endfacet
  facet normal 0 0 -1
    outer loop
      vertex 13.4984 -2.86918 -2.35
      vertex 15.6504 -3.32659 -2.35
      vertex 14.6167 -6.50779 -2.35
    endloop
  endfacet
  facet normal 0 0 -1
    outer loop
      vertex 16 0 -2.35
      vertex 13.8 0 -2.35
      vertex 15.7197 2.66667 -2.35
    endloop
  endfacet
  facet normal -0 0 -1
    outer loop
      vertex 15.7197 2.66667 -2.35
      vertex 13.8 0 -2.35
      vertex 13.5197 2.66667 -2.35
    endloop
  endfacet
  facet normal -0 0 -1
    outer loop
      vertex -13.4984 -2.86918 -2.35
      vertex -15.6504 -3.32659 -2.35
      vertex -13.8 0 -2.35
    endloop
  endfacet
  facet normal 0 0 -1
    outer loop
      vertex -16 0 -2.35
      vertex -13.8 0 -2.35
      vertex -15.6504 -3.32659 -2.35
    endloop
  endfacet
  facet normal 0 -0 -1
    outer loop
      vertex -15.7197 2.66667 -2.35
      vertex -13.8 0 -2.35
      vertex -16 0 -2.35
    endloop
  endfacet
  facet normal 0 0 -1
    outer loop
      vertex -13.8 0 -2.35
      vertex -15.7197 2.66667 -2.35
      vertex -13.5197 2.66667 -2.35
    endloop
  endfacet
  facet normal -0.207912 0.978148 0
    outer loop
      vertex 4.26443 -13.1246 1.15
      vertex 1.44249 -13.7244 2.35
      vertex 4.26443 -13.1246 2.35
    endloop
  endfacet
  facet normal -0.207912 0.978148 0
    outer loop
      vertex 1.44249 -13.7244 2.35
      vertex 4.26443 -13.1246 1.15
      vertex 1.44249 -13.7244 1.15
    endloop
  endfacet
  facet normal -0.207912 0.978148 0
    outer loop
      vertex 4.26443 -13.1246 -2.35
      vertex 1.44249 -13.7244 -1.15
      vertex 4.26443 -13.1246 -1.15
    endloop
  endfacet
  facet normal -0.207912 0.978148 0
    outer loop
      vertex 1.44249 -13.7244 -1.15
      vertex 4.26443 -13.1246 -2.35
      vertex 1.44249 -13.7244 -2.35
    endloop
  endfacet
  facet normal -0.406737 0.913545 0
    outer loop
      vertex 6.9 -11.9511 -2.35
      vertex 4.26443 -13.1246 -1.15
      vertex 6.9 -11.9511 -1.15
    endloop
  endfacet
  facet normal -0.406737 0.913545 0
    outer loop
      vertex 4.26443 -13.1246 -1.15
      vertex 6.9 -11.9511 -2.35
      vertex 4.26443 -13.1246 -2.35
    endloop
  endfacet
  facet normal -0.406737 0.913545 0
    outer loop
      vertex 6.9 -11.9511 1.15
      vertex 4.26443 -13.1246 2.35
      vertex 6.9 -11.9511 2.35
    endloop
  endfacet
  facet normal -0.406737 0.913545 0
    outer loop
      vertex 4.26443 -13.1246 2.35
      vertex 6.9 -11.9511 1.15
      vertex 4.26443 -13.1246 1.15
    endloop
  endfacet
  facet normal 0.951057 0.309017 0
    outer loop
      vertex -12.6069 -5.61297 2.35
      vertex -13.4984 -2.86918 1.15
      vertex -13.4984 -2.86918 2.35
    endloop
  endfacet
  facet normal 0.951057 0.309017 0
    outer loop
      vertex -13.4984 -2.86918 1.15
      vertex -12.6069 -5.61297 2.35
      vertex -12.6069 -5.61297 1.15
    endloop
  endfacet
  facet normal 0.951057 0.309017 0
    outer loop
      vertex -12.6069 -5.61297 -1.15
      vertex -13.4984 -2.86918 -2.35
      vertex -13.4984 -2.86918 -1.15
    endloop
  endfacet
  facet normal 0.951057 0.309017 0
    outer loop
      vertex -13.4984 -2.86918 -2.35
      vertex -12.6069 -5.61297 -1.15
      vertex -12.6069 -5.61297 -2.35
    endloop
  endfacet
  facet normal 0.994522 0.104529 0
    outer loop
      vertex -13.4984 -2.86918 2.35
      vertex -13.8 0 1.15
      vertex -13.8 0 2.35
    endloop
  endfacet
  facet normal 0.994522 0.104529 0
    outer loop
      vertex -13.8 0 1.15
      vertex -13.4984 -2.86918 2.35
      vertex -13.4984 -2.86918 1.15
    endloop
  endfacet
  facet normal 0.994522 0.104529 0
    outer loop
      vertex -13.4984 -2.86918 -1.15
      vertex -13.8 0 -2.35
      vertex -13.8 0 -1.15
    endloop
  endfacet
  facet normal 0.994522 0.104529 0
    outer loop
      vertex -13.8 0 -2.35
      vertex -13.4984 -2.86918 -1.15
      vertex -13.4984 -2.86918 -2.35
    endloop
  endfacet
  facet normal 0.743145 0.669131 0
    outer loop
      vertex -9.234 -10.2554 -1.15
      vertex -11.1644 -8.11144 -2.35
      vertex -11.1644 -8.11144 -1.15
    endloop
  endfacet
  facet normal 0.743145 0.669131 0
    outer loop
      vertex -11.1644 -8.11144 -2.35
      vertex -9.234 -10.2554 -1.15
      vertex -9.234 -10.2554 -2.35
    endloop
  endfacet
  facet normal 0.743145 0.669131 0
    outer loop
      vertex -9.234 -10.2554 2.35
      vertex -11.1644 -8.11144 1.15
      vertex -11.1644 -8.11144 2.35
    endloop
  endfacet
  facet normal 0.743145 0.669131 0
    outer loop
      vertex -11.1644 -8.11144 1.15
      vertex -9.234 -10.2554 2.35
      vertex -9.234 -10.2554 1.15
    endloop
  endfacet
  facet normal -0.743145 0.669131 0
    outer loop
      vertex 9.234 -10.2554 -2.35
      vertex 11.1644 -8.11144 -1.15
      vertex 11.1644 -8.11144 -2.35
    endloop
  endfacet
  facet normal -0.743145 0.669131 0
    outer loop
      vertex 11.1644 -8.11144 -1.15
      vertex 9.234 -10.2554 -2.35
      vertex 9.234 -10.2554 -1.15
    endloop
  endfacet
  facet normal -0.743145 0.669131 0
    outer loop
      vertex 9.234 -10.2554 1.15
      vertex 11.1644 -8.11144 2.35
      vertex 11.1644 -8.11144 1.15
    endloop
  endfacet
  facet normal -0.743145 0.669131 0
    outer loop
      vertex 11.1644 -8.11144 2.35
      vertex 9.234 -10.2554 1.15
      vertex 9.234 -10.2554 2.35
    endloop
  endfacet
  facet normal 0.406737 0.913545 -0
    outer loop
      vertex -4.26443 -13.1246 1.15
      vertex -6.9 -11.9511 2.35
      vertex -4.26443 -13.1246 2.35
    endloop
  endfacet
  facet normal 0.406737 0.913545 0
    outer loop
      vertex -6.9 -11.9511 2.35
      vertex -4.26443 -13.1246 1.15
      vertex -6.9 -11.9511 1.15
    endloop
  endfacet
  facet normal 0.406737 0.913545 -0
    outer loop
      vertex -4.26443 -13.1246 -2.35
      vertex -6.9 -11.9511 -1.15
      vertex -4.26443 -13.1246 -1.15
    endloop
  endfacet
  facet normal 0.406737 0.913545 0
    outer loop
      vertex -6.9 -11.9511 -1.15
      vertex -4.26443 -13.1246 -2.35
      vertex -6.9 -11.9511 -2.35
    endloop
  endfacet
  facet normal 0.587785 0.809017 -0
    outer loop
      vertex -6.9 -11.9511 -2.35
      vertex -9.234 -10.2554 -1.15
      vertex -6.9 -11.9511 -1.15
    endloop
  endfacet
  facet normal 0.587785 0.809017 0
    outer loop
      vertex -9.234 -10.2554 -1.15
      vertex -6.9 -11.9511 -2.35
      vertex -9.234 -10.2554 -2.35
    endloop
  endfacet
  facet normal 0.587785 0.809017 -0
    outer loop
      vertex -6.9 -11.9511 1.15
      vertex -9.234 -10.2554 2.35
      vertex -6.9 -11.9511 2.35
    endloop
  endfacet
  facet normal 0.587785 0.809017 0
    outer loop
      vertex -9.234 -10.2554 2.35
      vertex -6.9 -11.9511 1.15
      vertex -9.234 -10.2554 1.15
    endloop
  endfacet
  facet normal 0.207912 0.978148 -0
    outer loop
      vertex -1.44249 -13.7244 1.15
      vertex -4.26443 -13.1246 2.35
      vertex -1.44249 -13.7244 2.35
    endloop
  endfacet
  facet normal 0.207912 0.978148 0
    outer loop
      vertex -4.26443 -13.1246 2.35
      vertex -1.44249 -13.7244 1.15
      vertex -4.26443 -13.1246 1.15
    endloop
  endfacet
  facet normal 0.207912 0.978148 -0
    outer loop
      vertex -1.44249 -13.7244 -2.35
      vertex -4.26443 -13.1246 -1.15
      vertex -1.44249 -13.7244 -1.15
    endloop
  endfacet
  facet normal 0.207912 0.978148 0
    outer loop
      vertex -4.26443 -13.1246 -1.15
      vertex -1.44249 -13.7244 -2.35
      vertex -4.26443 -13.1246 -2.35
    endloop
  endfacet
  facet normal 0 1 0
    outer loop
      vertex -13.6044 2.66667 1.06883
      vertex -13.5197 2.66667 2.35
      vertex -13.5197 2.66667 1.15
    endloop
  endfacet
  facet normal 0 1 0
    outer loop
      vertex -13.5197 2.66667 2.35
      vertex -13.6044 2.66667 1.06883
      vertex -15.7197 2.66667 2.35
    endloop
  endfacet
  facet normal 0 1 -0
    outer loop
      vertex -14.7197 2.66667 0
      vertex -15.7197 2.66667 2.35
      vertex -13.6044 2.66667 1.06883
    endloop
  endfacet
  facet normal 0 1 -0
    outer loop
      vertex -13.5197 2.66667 -2.35
      vertex -13.6044 2.66667 -1.06883
      vertex -13.5197 2.66667 -1.15
    endloop
  endfacet
  facet normal 0 1 0
    outer loop
      vertex -15.7197 2.66667 -2.35
      vertex -13.6044 2.66667 -1.06883
      vertex -13.5197 2.66667 -2.35
    endloop
  endfacet
  facet normal 0 1 0
    outer loop
      vertex -14.7197 2.66667 0
      vertex -15.7197 2.66667 -2.35
      vertex -15.7197 2.66667 2.35
    endloop
  endfacet
  facet normal 0 1 0
    outer loop
      vertex -13.6044 2.66667 -1.06883
      vertex -15.7197 2.66667 -2.35
      vertex -14.7197 2.66667 0
    endloop
  endfacet
  facet normal 0 1 -0
    outer loop
      vertex 13.6044 2.66667 1.06883
      vertex 13.5197 2.66667 2.35
      vertex 15.7197 2.66667 2.35
    endloop
  endfacet
  facet normal 0 1 0
    outer loop
      vertex 13.5197 2.66667 2.35
      vertex 13.6044 2.66667 1.06883
      vertex 13.5197 2.66667 1.15
    endloop
  endfacet
  facet normal 0 1 0
    outer loop
      vertex 15.7197 2.66667 2.35
      vertex 14.7197 2.66667 0
      vertex 13.6044 2.66667 1.06883
    endloop
  endfacet
  facet normal 0 1 -0
    outer loop
      vertex 15.7197 2.66667 -2.35
      vertex 14.7197 2.66667 0
      vertex 15.7197 2.66667 2.35
    endloop
  endfacet
  facet normal 0 1 0
    outer loop
      vertex 15.7197 2.66667 -2.35
      vertex 13.6044 2.66667 -1.06883
      vertex 14.7197 2.66667 0
    endloop
  endfacet
  facet normal 0 1 0
    outer loop
      vertex 13.5197 2.66667 -2.35
      vertex 13.6044 2.66667 -1.06883
      vertex 15.7197 2.66667 -2.35
    endloop
  endfacet
  facet normal 0 1 0
    outer loop
      vertex 13.6044 2.66667 -1.06883
      vertex 13.5197 2.66667 -2.35
      vertex 13.5197 2.66667 -1.15
    endloop
  endfacet
  facet normal 0.868496 -0.495696 0
    outer loop
      vertex 2.35 -28 2.35
      vertex 14.6167 -6.50779 -2.35
      vertex 14.6167 -6.50779 2.35
    endloop
  endfacet
  facet normal 0.868496 -0.495696 0
    outer loop
      vertex 14.6167 -6.50779 -2.35
      vertex 2.35 -28 2.35
      vertex 2.35 -28 -2.35
    endloop
  endfacet
  facet normal 0.994522 -0.104529 0
    outer loop
      vertex 15.6504 -3.32659 2.35
      vertex 16 0 -2.35
      vertex 16 0 2.35
    endloop
  endfacet
  facet normal 0.994522 -0.104529 0
    outer loop
      vertex 16 0 -2.35
      vertex 15.6504 -3.32659 2.35
      vertex 15.6504 -3.32659 -2.35
    endloop
  endfacet
  facet normal 0 1 0
    outer loop
      vertex 16 -28 5
      vertex 2.35 -28 2.35
      vertex -16 -28 5
    endloop
  endfacet
  facet normal 0 1 0
    outer loop
      vertex 16 -28 5
      vertex 2.35 -28 -2.35
      vertex 2.35 -28 2.35
    endloop
  endfacet
  facet normal 0 1 0
    outer loop
      vertex 2.35 -28 -2.35
      vertex 16 -28 -5
      vertex -2.35 -28 -2.35
    endloop
  endfacet
  facet normal 0 1 -0
    outer loop
      vertex 16 -28 -5
      vertex 2.35 -28 -2.35
      vertex 16 -28 5
    endloop
  endfacet
  facet normal 0 1 -0
    outer loop
      vertex -2.35 -28 2.35
      vertex -16 -28 5
      vertex 2.35 -28 2.35
    endloop
  endfacet
  facet normal 0 1 -0
    outer loop
      vertex -2.35 -28 -2.35
      vertex -16 -28 5
      vertex -2.35 -28 2.35
    endloop
  endfacet
  facet normal 0 1 0
    outer loop
      vertex -2.35 -28 -2.35
      vertex -16 -28 -5
      vertex -16 -28 5
    endloop
  endfacet
  facet normal 0 1 0
    outer loop
      vertex -16 -28 -5
      vertex -2.35 -28 -2.35
      vertex 16 -28 -5
    endloop
  endfacet
  facet normal -0.868496 -0.495696 0
    outer loop
      vertex -2.35 -28 -2.35
      vertex -14.6167 -6.50779 2.35
      vertex -14.6167 -6.50779 -2.35
    endloop
  endfacet
  facet normal -0.868496 -0.495696 0
    outer loop
      vertex -14.6167 -6.50779 2.35
      vertex -2.35 -28 -2.35
      vertex -2.35 -28 2.35
    endloop
  endfacet
  facet normal -0.951057 -0.309017 0
    outer loop
      vertex -14.6167 -6.50779 -2.35
      vertex -15.6504 -3.32659 2.35
      vertex -15.6504 -3.32659 -2.35
    endloop
  endfacet
  facet normal -0.951057 -0.309017 0
    outer loop
      vertex -15.6504 -3.32659 2.35
      vertex -14.6167 -6.50779 -2.35
      vertex -14.6167 -6.50779 2.35
    endloop
  endfacet
  facet normal 0.951057 -0.309017 0
    outer loop
      vertex 14.6167 -6.50779 2.35
      vertex 15.6504 -3.32659 -2.35
      vertex 15.6504 -3.32659 2.35
    endloop
  endfacet
  facet normal 0.951057 -0.309017 0
    outer loop
      vertex 15.6504 -3.32659 -2.35
      vertex 14.6167 -6.50779 2.35
      vertex 14.6167 -6.50779 -2.35
    endloop
  endfacet
  facet normal 0.994522 0.104529 0
    outer loop
      vertex 16 0 2.35
      vertex 15.7197 2.66667 -2.35
      vertex 15.7197 2.66667 2.35
    endloop
  endfacet
  facet normal 0.994522 0.104529 0
    outer loop
      vertex 15.7197 2.66667 -2.35
      vertex 16 0 2.35
      vertex 16 0 -2.35
    endloop
  endfacet
  facet normal -0.994522 -0.104529 0
    outer loop
      vertex -15.6504 -3.32659 -2.35
      vertex -16 0 2.35
      vertex -16 0 -2.35
    endloop
  endfacet
  facet normal -0.994522 -0.104529 0
    outer loop
      vertex -16 0 2.35
      vertex -15.6504 -3.32659 -2.35
      vertex -15.6504 -3.32659 2.35
    endloop
  endfacet
  facet normal -0.994522 0.104529 0
    outer loop
      vertex -16 0 -2.35
      vertex -15.7197 2.66667 2.35
      vertex -15.7197 2.66667 -2.35
    endloop
  endfacet
  facet normal -0.994522 0.104529 0
    outer loop
      vertex -15.7197 2.66667 2.35
      vertex -16 0 -2.35
      vertex -16 0 2.35
    endloop
  endfacet
  facet normal -1 0 0
    outer loop
      vertex -16 -30 -5
      vertex -16 -28 5
      vertex -16 -28 -5
    endloop
  endfacet
  facet normal -1 -0 0
    outer loop
      vertex -16 -28 5
      vertex -16 -30 -5
      vertex -16 -30 5
    endloop
  endfacet
  facet normal -0 0 1
    outer loop
      vertex -16 -28 5
      vertex 16 -30 5
      vertex 16 -28 5
    endloop
  endfacet
  facet normal 0 0 1
    outer loop
      vertex 16 -30 5
      vertex -16 -28 5
      vertex -16 -30 5
    endloop
  endfacet
  facet normal 1 -0 0
    outer loop
      vertex 16 -30 5
      vertex 16 -28 -5
      vertex 16 -28 5
    endloop
  endfacet
  facet normal 1 0 0
    outer loop
      vertex 16 -28 -5
      vertex 16 -30 5
      vertex 16 -30 -5
    endloop
  endfacet
  facet normal 0 0 -1
    outer loop
      vertex -16 -30 -5
      vertex 16 -28 -5
      vertex 16 -30 -5
    endloop
  endfacet
  facet normal -0 0 -1
    outer loop
      vertex 16 -28 -5
      vertex -16 -30 -5
      vertex -16 -28 -5
    endloop
  endfacet
  facet normal 0 -1 0
    outer loop
      vertex -16 -30 -5
      vertex 16 -30 5
      vertex -16 -30 5
    endloop
  endfacet
  facet normal 0 -1 -0
    outer loop
      vertex 16 -30 5
      vertex -16 -30 -5
      vertex 16 -30 -5
    endloop
  endfacet
endsolid OpenSCAD_Model
