solid OpenSCAD_Model
  facet normal -0.59881 -0.0629374 -0.798414
    outer loop
      vertex 10.6 0 0
      vertex 10.2495 1.93333 0.110478
      vertex 10.3968 1.93333 0
    endloop
  endfacet
  facet normal -0.59881 -0.0629375 -0.798414
    outer loop
      vertex 10.2495 1.93333 0.110478
      vertex 10.6 0 0
      vertex 9.4 0 0.9
    endloop
  endfacet
  facet normal 0.447454 0.402889 -0.798414
    outer loop
      vertex -6.28983 -6.98556 0.9
      vertex -7.09278 -7.87733 0
      vertex -7.60476 -5.52518 0.9
    endloop
  endfacet
  facet normal -0.2449 0.550054 -0.798414
    outer loop
      vertex 4.7 -8.14064 0.9
      vertex 3.27558 -10.0812 0
      vertex 2.90476 -8.93993 0.9
    endloop
  endfacet
  facet normal 0.125185 0.588951 -0.798414
    outer loop
      vertex -0.982567 -9.34851 0.9
      vertex -1.108 -10.5419 0
      vertex -2.90476 -8.93993 0.9
    endloop
  endfacet
  facet normal -0.59881 -0.0629377 -0.798414
    outer loop
      vertex 10.2495 1.93333 0.110478
      vertex 9.4 0 0.9
      vertex 9.1968 1.93333 0.9
    endloop
  endfacet
  facet normal 0.572639 0.186062 -0.798414
    outer loop
      vertex -9.19459 -1.95437 0.9
      vertex -8.58733 -3.82332 0.9
      vertex -10.3684 -2.20386 0
    endloop
  endfacet
  facet normal 0.125185 0.588951 -0.798414
    outer loop
      vertex -2.90476 -8.93993 0.9
      vertex -1.108 -10.5419 0
      vertex -3.27558 -10.0812 0
    endloop
  endfacet
  facet normal -0.353911 0.487116 -0.798414
    outer loop
      vertex 7.09278 -7.87733 0
      vertex 5.3 -9.17987 0
      vertex 4.7 -8.14064 0.9
    endloop
  endfacet
  facet normal -0.59881 0.0629374 -0.798414
    outer loop
      vertex 10.6 0 0
      vertex 10.3684 -2.20386 0
      vertex 9.4 0 0.9
    endloop
  endfacet
  facet normal -0.572639 0.186062 -0.798414
    outer loop
      vertex 10.3684 -2.20386 0
      vertex 9.68358 -4.31141 0
      vertex 8.58733 -3.82332 0.9
    endloop
  endfacet
  facet normal -0.59881 0.0629376 -0.798414
    outer loop
      vertex 9.4 0 0.9
      vertex 10.3684 -2.20386 0
      vertex 9.19459 -1.95437 0.9
    endloop
  endfacet
  facet normal 0.59881 0.0629376 -0.798414
    outer loop
      vertex -9.4 0 0.9
      vertex -9.19459 -1.95437 0.9
      vertex -10.3684 -2.20386 0
    endloop
  endfacet
  facet normal 0.59881 -0.0629375 -0.798414
    outer loop
      vertex -10.6 0 0
      vertex -10.2495 1.93333 0.110478
      vertex -9.4 0 0.9
    endloop
  endfacet
  facet normal 0.59881 -0.0629374 -0.798414
    outer loop
      vertex -10.2495 1.93333 0.110478
      vertex -10.6 0 0
      vertex -10.3968 1.93333 0
    endloop
  endfacet
  facet normal 0.59881 0.0629374 -0.798414
    outer loop
      vertex -9.4 0 0.9
      vertex -10.3684 -2.20386 0
      vertex -10.6 0 0
    endloop
  endfacet
  facet normal 0.353911 0.487116 -0.798414
    outer loop
      vertex -4.7 -8.14064 0.9
      vertex -5.3 -9.17987 0
      vertex -7.09278 -7.87733 0
    endloop
  endfacet
  facet normal -0.125185 0.588951 -0.798414
    outer loop
      vertex 2.90476 -8.93993 0.9
      vertex 3.27558 -10.0812 0
      vertex 1.108 -10.5419 0
    endloop
  endfacet
  facet normal -0.2449 0.550054 -0.798414
    outer loop
      vertex 4.7 -8.14064 0.9
      vertex 5.3 -9.17987 0
      vertex 3.27558 -10.0812 0
    endloop
  endfacet
  facet normal -0.447454 0.402889 -0.798414
    outer loop
      vertex 7.60476 -5.52518 0.9
      vertex 8.57558 -6.23052 0
      vertex 7.09278 -7.87733 0
    endloop
  endfacet
  facet normal -0.521441 0.301054 -0.798414
    outer loop
      vertex 8.58733 -3.82332 0.9
      vertex 8.57558 -6.23052 0
      vertex 7.60476 -5.52518 0.9
    endloop
  endfacet
  facet normal -0.521442 0.301054 -0.798414
    outer loop
      vertex 8.58733 -3.82332 0.9
      vertex 9.68358 -4.31141 0
      vertex 8.57558 -6.23052 0
    endloop
  endfacet
  facet normal 0.521442 0.301054 -0.798414
    outer loop
      vertex -8.58733 -3.82332 0.9
      vertex -8.57558 -6.23052 0
      vertex -9.68358 -4.31141 0
    endloop
  endfacet
  facet normal 0.59881 -0.0629377 -0.798414
    outer loop
      vertex -9.1968 1.93333 0.9
      vertex -9.4 0 0.9
      vertex -10.2495 1.93333 0.110478
    endloop
  endfacet
  facet normal 0.2449 0.550054 -0.798414
    outer loop
      vertex -4.7 -8.14064 0.9
      vertex -3.27558 -10.0812 0
      vertex -5.3 -9.17987 0
    endloop
  endfacet
  facet normal 0.2449 0.550054 -0.798414
    outer loop
      vertex -2.90476 -8.93993 0.9
      vertex -3.27558 -10.0812 0
      vertex -4.7 -8.14064 0.9
    endloop
  endfacet
  facet normal 0 0.602109 -0.798414
    outer loop
      vertex 1.108 -10.5419 0
      vertex -0.982567 -9.34851 0.9
      vertex 0.982567 -9.34851 0.9
    endloop
  endfacet
  facet normal 0 0.602109 -0.798414
    outer loop
      vertex -0.982567 -9.34851 0.9
      vertex 1.108 -10.5419 0
      vertex -1.108 -10.5419 0
    endloop
  endfacet
  facet normal -0.353911 0.487116 -0.798414
    outer loop
      vertex 6.28983 -6.98556 0.9
      vertex 7.09278 -7.87733 0
      vertex 4.7 -8.14064 0.9
    endloop
  endfacet
  facet normal -0.447454 0.402889 -0.798414
    outer loop
      vertex 7.60476 -5.52518 0.9
      vertex 7.09278 -7.87733 0
      vertex 6.28983 -6.98556 0.9
    endloop
  endfacet
  facet normal -0.572639 0.186062 -0.798414
    outer loop
      vertex 9.19459 -1.95437 0.9
      vertex 10.3684 -2.20386 0
      vertex 8.58733 -3.82332 0.9
    endloop
  endfacet
  facet normal 0.572639 0.186062 -0.798414
    outer loop
      vertex -8.58733 -3.82332 0.9
      vertex -9.68358 -4.31141 0
      vertex -10.3684 -2.20386 0
    endloop
  endfacet
  facet normal 0.447454 0.402889 -0.798414
    outer loop
      vertex -7.60476 -5.52518 0.9
      vertex -7.09278 -7.87733 0
      vertex -8.57558 -6.23052 0
    endloop
  endfacet
  facet normal 0.353911 0.487116 -0.798414
    outer loop
      vertex -6.28983 -6.98556 0.9
      vertex -4.7 -8.14064 0.9
      vertex -7.09278 -7.87733 0
    endloop
  endfacet
  facet normal -0.125185 0.588951 -0.798414
    outer loop
      vertex 2.90476 -8.93993 0.9
      vertex 1.108 -10.5419 0
      vertex 0.982567 -9.34851 0.9
    endloop
  endfacet
  facet normal 0.521441 0.301054 -0.798414
    outer loop
      vertex -7.60476 -5.52518 0.9
      vertex -8.57558 -6.23052 0
      vertex -8.58733 -3.82332 0.9
    endloop
  endfacet
  facet normal -0.572639 0.186062 0.798414
    outer loop
      vertex 9.68358 -4.31141 0
      vertex 10.3684 -2.20386 0
      vertex 8.58733 -3.82332 -0.9
    endloop
  endfacet
  facet normal -0.59881 -0.0629374 0.798414
    outer loop
      vertex 10.2495 1.93333 -0.110478
      vertex 10.6 0 0
      vertex 10.3968 1.93333 0
    endloop
  endfacet
  facet normal -0.59881 -0.0629375 0.798414
    outer loop
      vertex 10.6 0 0
      vertex 10.2495 1.93333 -0.110478
      vertex 9.4 0 -0.9
    endloop
  endfacet
  facet normal -0.59881 -0.0629377 0.798414
    outer loop
      vertex 9.4 0 -0.9
      vertex 10.2495 1.93333 -0.110478
      vertex 9.1968 1.93333 -0.9
    endloop
  endfacet
  facet normal -0.59881 0.0629376 0.798414
    outer loop
      vertex 10.3684 -2.20386 0
      vertex 9.4 0 -0.9
      vertex 9.19459 -1.95437 -0.9
    endloop
  endfacet
  facet normal 0.59881 0.0629376 0.798414
    outer loop
      vertex -9.19459 -1.95437 -0.9
      vertex -9.4 0 -0.9
      vertex -10.3684 -2.20386 0
    endloop
  endfacet
  facet normal 0.59881 -0.0629377 0.798414
    outer loop
      vertex -9.4 0 -0.9
      vertex -9.1968 1.93333 -0.9
      vertex -10.2495 1.93333 -0.110478
    endloop
  endfacet
  facet normal -0.447454 0.402889 0.798414
    outer loop
      vertex 7.09278 -7.87733 0
      vertex 7.60476 -5.52518 -0.9
      vertex 6.28983 -6.98556 -0.9
    endloop
  endfacet
  facet normal -0.59881 0.0629374 0.798414
    outer loop
      vertex 10.3684 -2.20386 0
      vertex 10.6 0 0
      vertex 9.4 0 -0.9
    endloop
  endfacet
  facet normal 0.125185 0.588951 0.798414
    outer loop
      vertex -1.108 -10.5419 0
      vertex -0.982567 -9.34851 -0.9
      vertex -2.90476 -8.93993 -0.9
    endloop
  endfacet
  facet normal 0.572639 0.186062 0.798414
    outer loop
      vertex -9.68358 -4.31141 0
      vertex -8.58733 -3.82332 -0.9
      vertex -10.3684 -2.20386 0
    endloop
  endfacet
  facet normal 0.353911 0.487116 0.798414
    outer loop
      vertex -5.3 -9.17987 0
      vertex -4.7 -8.14064 -0.9
      vertex -7.09278 -7.87733 0
    endloop
  endfacet
  facet normal -0.572639 0.186062 0.798414
    outer loop
      vertex 10.3684 -2.20386 0
      vertex 9.19459 -1.95437 -0.9
      vertex 8.58733 -3.82332 -0.9
    endloop
  endfacet
  facet normal -0.521442 0.301054 0.798414
    outer loop
      vertex 9.68358 -4.31141 0
      vertex 8.58733 -3.82332 -0.9
      vertex 8.57558 -6.23052 0
    endloop
  endfacet
  facet normal -0.353911 0.487116 0.798414
    outer loop
      vertex 5.3 -9.17987 0
      vertex 7.09278 -7.87733 0
      vertex 4.7 -8.14064 -0.9
    endloop
  endfacet
  facet normal -0.125185 0.588951 0.798414
    outer loop
      vertex 3.27558 -10.0812 0
      vertex 2.90476 -8.93993 -0.9
      vertex 1.108 -10.5419 0
    endloop
  endfacet
  facet normal 0.572639 0.186062 0.798414
    outer loop
      vertex -8.58733 -3.82332 -0.9
      vertex -9.19459 -1.95437 -0.9
      vertex -10.3684 -2.20386 0
    endloop
  endfacet
  facet normal 0.521442 0.301054 0.798414
    outer loop
      vertex -8.57558 -6.23052 0
      vertex -8.58733 -3.82332 -0.9
      vertex -9.68358 -4.31141 0
    endloop
  endfacet
  facet normal 0.125185 0.588951 0.798414
    outer loop
      vertex -1.108 -10.5419 0
      vertex -2.90476 -8.93993 -0.9
      vertex -3.27558 -10.0812 0
    endloop
  endfacet
  facet normal -0 0.602109 0.798414
    outer loop
      vertex -0.982567 -9.34851 -0.9
      vertex 1.108 -10.5419 0
      vertex 0.982567 -9.34851 -0.9
    endloop
  endfacet
  facet normal 0 0.602109 0.798414
    outer loop
      vertex 1.108 -10.5419 0
      vertex -0.982567 -9.34851 -0.9
      vertex -1.108 -10.5419 0
    endloop
  endfacet
  facet normal 0.59881 -0.0629374 0.798414
    outer loop
      vertex -10.6 0 0
      vertex -10.2495 1.93333 -0.110478
      vertex -10.3968 1.93333 0
    endloop
  endfacet
  facet normal 0.59881 -0.0629375 0.798414
    outer loop
      vertex -10.2495 1.93333 -0.110478
      vertex -10.6 0 0
      vertex -9.4 0 -0.9
    endloop
  endfacet
  facet normal 0.59881 0.0629374 0.798414
    outer loop
      vertex -10.3684 -2.20386 0
      vertex -9.4 0 -0.9
      vertex -10.6 0 0
    endloop
  endfacet
  facet normal -0.521441 0.301054 0.798414
    outer loop
      vertex 8.57558 -6.23052 0
      vertex 8.58733 -3.82332 -0.9
      vertex 7.60476 -5.52518 -0.9
    endloop
  endfacet
  facet normal -0.447454 0.402889 0.798414
    outer loop
      vertex 8.57558 -6.23052 0
      vertex 7.60476 -5.52518 -0.9
      vertex 7.09278 -7.87733 0
    endloop
  endfacet
  facet normal -0.125185 0.588951 0.798414
    outer loop
      vertex 1.108 -10.5419 0
      vertex 2.90476 -8.93993 -0.9
      vertex 0.982567 -9.34851 -0.9
    endloop
  endfacet
  facet normal -0.2449 0.550054 0.798414
    outer loop
      vertex 5.3 -9.17987 0
      vertex 4.7 -8.14064 -0.9
      vertex 3.27558 -10.0812 0
    endloop
  endfacet
  facet normal -0.2449 0.550054 0.798414
    outer loop
      vertex 3.27558 -10.0812 0
      vertex 4.7 -8.14064 -0.9
      vertex 2.90476 -8.93993 -0.9
    endloop
  endfacet
  facet normal 0.2449 0.550054 0.798414
    outer loop
      vertex -3.27558 -10.0812 0
      vertex -2.90476 -8.93993 -0.9
      vertex -4.7 -8.14064 -0.9
    endloop
  endfacet
  facet normal 0.2449 0.550054 0.798414
    outer loop
      vertex -3.27558 -10.0812 0
      vertex -4.7 -8.14064 -0.9
      vertex -5.3 -9.17987 0
    endloop
  endfacet
  facet normal 0.447454 0.402889 0.798414
    outer loop
      vertex -7.09278 -7.87733 0
      vertex -6.28983 -6.98556 -0.9
      vertex -7.60476 -5.52518 -0.9
    endloop
  endfacet
  facet normal -0.353911 0.487116 0.798414
    outer loop
      vertex 7.09278 -7.87733 0
      vertex 6.28983 -6.98556 -0.9
      vertex 4.7 -8.14064 -0.9
    endloop
  endfacet
  facet normal 0.521441 0.301054 0.798414
    outer loop
      vertex -8.57558 -6.23052 0
      vertex -7.60476 -5.52518 -0.9
      vertex -8.58733 -3.82332 -0.9
    endloop
  endfacet
  facet normal 0.447454 0.402889 0.798414
    outer loop
      vertex -7.09278 -7.87733 0
      vertex -7.60476 -5.52518 -0.9
      vertex -8.57558 -6.23052 0
    endloop
  endfacet
  facet normal 0.353911 0.487116 0.798414
    outer loop
      vertex -4.7 -8.14064 -0.9
      vertex -6.28983 -6.98556 -0.9
      vertex -7.09278 -7.87733 0
    endloop
  endfacet
  facet normal -0.994522 -0.104529 0
    outer loop
      vertex 9.4 0 0.9
      vertex 9.1968 1.93333 2.1
      vertex 9.1968 1.93333 0.9
    endloop
  endfacet
  facet normal -0.994522 -0.104529 0
    outer loop
      vertex 9.1968 1.93333 2.1
      vertex 9.4 0 0.9
      vertex 9.4 0 2.1
    endloop
  endfacet
  facet normal -0.994522 -0.104529 0
    outer loop
      vertex 9.4 0 -2.1
      vertex 9.1968 1.93333 -0.9
      vertex 9.1968 1.93333 -2.1
    endloop
  endfacet
  facet normal -0.994522 -0.104529 0
    outer loop
      vertex 9.1968 1.93333 -0.9
      vertex 9.4 0 -2.1
      vertex 9.4 0 -0.9
    endloop
  endfacet
  facet normal 0.994522 -0.104529 0
    outer loop
      vertex -9.4 0 2.1
      vertex -9.1968 1.93333 0.9
      vertex -9.1968 1.93333 2.1
    endloop
  endfacet
  facet normal 0.994522 -0.104529 0
    outer loop
      vertex -9.1968 1.93333 0.9
      vertex -9.4 0 2.1
      vertex -9.4 0 0.9
    endloop
  endfacet
  facet normal 0.994522 -0.104529 0
    outer loop
      vertex -9.4 0 -0.9
      vertex -9.1968 1.93333 -2.1
      vertex -9.1968 1.93333 -0.9
    endloop
  endfacet
  facet normal 0.994522 -0.104529 0
    outer loop
      vertex -9.1968 1.93333 -2.1
      vertex -9.4 0 -0.9
      vertex -9.4 0 -2.1
    endloop
  endfacet
  facet normal 0 1 -0
    outer loop
      vertex 0.982567 -9.34851 -2.1
      vertex -0.982567 -9.34851 -0.9
      vertex 0.982567 -9.34851 -0.9
    endloop
  endfacet
  facet normal 0 1 0
    outer loop
      vertex -0.982567 -9.34851 -0.9
      vertex 0.982567 -9.34851 -2.1
      vertex -0.982567 -9.34851 -2.1
    endloop
  endfacet
  facet normal 0 1 -0
    outer loop
      vertex 0.982567 -9.34851 0.9
      vertex -0.982567 -9.34851 2.1
      vertex 0.982567 -9.34851 2.1
    endloop
  endfacet
  facet normal 0 1 0
    outer loop
      vertex -0.982567 -9.34851 2.1
      vertex 0.982567 -9.34851 0.9
      vertex -0.982567 -9.34851 0.9
    endloop
  endfacet
  facet normal -0.866025 0.5 0
    outer loop
      vertex 7.60476 -5.52518 -2.1
      vertex 8.58733 -3.82332 -0.9
      vertex 8.58733 -3.82332 -2.1
    endloop
  endfacet
  facet normal -0.866025 0.5 0
    outer loop
      vertex 8.58733 -3.82332 -0.9
      vertex 7.60476 -5.52518 -2.1
      vertex 7.60476 -5.52518 -0.9
    endloop
  endfacet
  facet normal -0.866025 0.5 0
    outer loop
      vertex 7.60476 -5.52518 0.9
      vertex 8.58733 -3.82332 2.1
      vertex 8.58733 -3.82332 0.9
    endloop
  endfacet
  facet normal -0.866025 0.5 0
    outer loop
      vertex 8.58733 -3.82332 2.1
      vertex 7.60476 -5.52518 0.9
      vertex 7.60476 -5.52518 2.1
    endloop
  endfacet
  facet normal -0 0 1
    outer loop
      vertex -11.3968 1.93333 2.1
      vertex -9.4 0 2.1
      vertex -9.1968 1.93333 2.1
    endloop
  endfacet
  facet normal 0 0 1
    outer loop
      vertex -9.4 0 2.1
      vertex -11.3465 -2.41178 2.1
      vertex -10.5971 -4.71814 2.1
    endloop
  endfacet
  facet normal 0 0 1
    outer loop
      vertex -9.4 0 2.1
      vertex -11.3968 1.93333 2.1
      vertex -11.6 0 2.1
    endloop
  endfacet
  facet normal 0 0 1
    outer loop
      vertex -9.4 0 2.1
      vertex -11.6 0 2.1
      vertex -11.3465 -2.41178 2.1
    endloop
  endfacet
  facet normal 0 0 1
    outer loop
      vertex 9.4 0 2.1
      vertex 11.6 0 2.1
      vertex 11.3968 1.93333 2.1
    endloop
  endfacet
  facet normal 0 0 1
    outer loop
      vertex 11.6 0 2.1
      vertex 9.4 0 2.1
      vertex 11.3465 -2.41178 2.1
    endloop
  endfacet
  facet normal 0 0 1
    outer loop
      vertex 11.3465 -2.41178 2.1
      vertex 9.4 0 2.1
      vertex 9.19459 -1.95437 2.1
    endloop
  endfacet
  facet normal 0 -0 1
    outer loop
      vertex 9.4 0 2.1
      vertex 11.3968 1.93333 2.1
      vertex 9.1968 1.93333 2.1
    endloop
  endfacet
  facet normal 0 0 1
    outer loop
      vertex 11.3465 -2.41178 2.1
      vertex 9.19459 -1.95437 2.1
      vertex 10.5971 -4.71814 2.1
    endloop
  endfacet
  facet normal -0 0 1
    outer loop
      vertex 8.58733 -3.82332 2.1
      vertex 10.5971 -4.71814 2.1
      vertex 9.19459 -1.95437 2.1
    endloop
  endfacet
  facet normal 0 0 1
    outer loop
      vertex 7.60476 -5.52518 2.1
      vertex 10.5971 -4.71814 2.1
      vertex 8.58733 -3.82332 2.1
    endloop
  endfacet
  facet normal 0 0 1
    outer loop
      vertex 6.28983 -6.98556 2.1
      vertex 10.5971 -4.71814 2.1
      vertex 7.60476 -5.52518 2.1
    endloop
  endfacet
  facet normal 0 0 1
    outer loop
      vertex 2.1 -28 2.1
      vertex 6.28983 -6.98556 2.1
      vertex 4.7 -8.14064 2.1
    endloop
  endfacet
  facet normal -0 0 1
    outer loop
      vertex 6.28983 -6.98556 2.1
      vertex 2.1 -28 2.1
      vertex 10.5971 -4.71814 2.1
    endloop
  endfacet
  facet normal -0 0 1
    outer loop
      vertex 2.90476 -8.93993 2.1
      vertex 2.1 -28 2.1
      vertex 4.7 -8.14064 2.1
    endloop
  endfacet
  facet normal -0 0 1
    outer loop
      vertex 0.982567 -9.34851 2.1
      vertex 2.1 -28 2.1
      vertex 2.90476 -8.93993 2.1
    endloop
  endfacet
  facet normal -0 0 1
    outer loop
      vertex -0.982567 -9.34851 2.1
      vertex 2.1 -28 2.1
      vertex 0.982567 -9.34851 2.1
    endloop
  endfacet
  facet normal 0 0 1
    outer loop
      vertex -0.982567 -9.34851 2.1
      vertex -2.1 -28 2.1
      vertex 2.1 -28 2.1
    endloop
  endfacet
  facet normal 0 0 1
    outer loop
      vertex -2.90476 -8.93993 2.1
      vertex -2.1 -28 2.1
      vertex -0.982567 -9.34851 2.1
    endloop
  endfacet
  facet normal 0 0 1
    outer loop
      vertex -4.7 -8.14064 2.1
      vertex -2.1 -28 2.1
      vertex -2.90476 -8.93993 2.1
    endloop
  endfacet
  facet normal 0 0 1
    outer loop
      vertex -6.28983 -6.98556 2.1
      vertex -2.1 -28 2.1
      vertex -4.7 -8.14064 2.1
    endloop
  endfacet
  facet normal 0 0 1
    outer loop
      vertex -10.5971 -4.71814 2.1
      vertex -6.28983 -6.98556 2.1
      vertex -7.60476 -5.52518 2.1
    endloop
  endfacet
  facet normal -0 0 1
    outer loop
      vertex -10.5971 -4.71814 2.1
      vertex -7.60476 -5.52518 2.1
      vertex -8.58733 -3.82332 2.1
    endloop
  endfacet
  facet normal 0 0 1
    outer loop
      vertex -10.5971 -4.71814 2.1
      vertex -8.58733 -3.82332 2.1
      vertex -9.19459 -1.95437 2.1
    endloop
  endfacet
  facet normal 0 0 1
    outer loop
      vertex -6.28983 -6.98556 2.1
      vertex -10.5971 -4.71814 2.1
      vertex -2.1 -28 2.1
    endloop
  endfacet
  facet normal 0 0 1
    outer loop
      vertex -10.5971 -4.71814 2.1
      vertex -9.19459 -1.95437 2.1
      vertex -9.4 0 2.1
    endloop
  endfacet
  facet normal 0 0 -1
    outer loop
      vertex 11.3465 -2.41178 -2.1
      vertex 9.19459 -1.95437 -2.1
      vertex 9.4 0 -2.1
    endloop
  endfacet
  facet normal 0 0 -1
    outer loop
      vertex 10.5971 -4.71814 -2.1
      vertex 8.58733 -3.82332 -2.1
      vertex 9.19459 -1.95437 -2.1
    endloop
  endfacet
  facet normal -0 0 -1
    outer loop
      vertex 10.5971 -4.71814 -2.1
      vertex 7.60476 -5.52518 -2.1
      vertex 8.58733 -3.82332 -2.1
    endloop
  endfacet
  facet normal 0 0 -1
    outer loop
      vertex 10.5971 -4.71814 -2.1
      vertex 6.28983 -6.98556 -2.1
      vertex 7.60476 -5.52518 -2.1
    endloop
  endfacet
  facet normal 0 0 -1
    outer loop
      vertex 2.1 -28 -2.1
      vertex 6.28983 -6.98556 -2.1
      vertex 10.5971 -4.71814 -2.1
    endloop
  endfacet
  facet normal 0 0 -1
    outer loop
      vertex 6.28983 -6.98556 -2.1
      vertex 2.1 -28 -2.1
      vertex 4.7 -8.14064 -2.1
    endloop
  endfacet
  facet normal 0 0 -1
    outer loop
      vertex 2.1 -28 -2.1
      vertex 2.90476 -8.93993 -2.1
      vertex 4.7 -8.14064 -2.1
    endloop
  endfacet
  facet normal 0 0 -1
    outer loop
      vertex 2.1 -28 -2.1
      vertex 0.982567 -9.34851 -2.1
      vertex 2.90476 -8.93993 -2.1
    endloop
  endfacet
  facet normal 0 0 -1
    outer loop
      vertex 2.1 -28 -2.1
      vertex -0.982567 -9.34851 -2.1
      vertex 0.982567 -9.34851 -2.1
    endloop
  endfacet
  facet normal 0 0 -1
    outer loop
      vertex -2.1 -28 -2.1
      vertex -0.982567 -9.34851 -2.1
      vertex 2.1 -28 -2.1
    endloop
  endfacet
  facet normal 0 0 -1
    outer loop
      vertex -2.1 -28 -2.1
      vertex -2.90476 -8.93993 -2.1
      vertex -0.982567 -9.34851 -2.1
    endloop
  endfacet
  facet normal 0 0 -1
    outer loop
      vertex -2.1 -28 -2.1
      vertex -4.7 -8.14064 -2.1
      vertex -2.90476 -8.93993 -2.1
    endloop
  endfacet
  facet normal 0 0 -1
    outer loop
      vertex -2.1 -28 -2.1
      vertex -6.28983 -6.98556 -2.1
      vertex -4.7 -8.14064 -2.1
    endloop
  endfacet
  facet normal 0 0 -1
    outer loop
      vertex -10.5971 -4.71814 -2.1
      vertex -6.28983 -6.98556 -2.1
      vertex -2.1 -28 -2.1
    endloop
  endfacet
  facet normal 0 0 -1
    outer loop
      vertex -6.28983 -6.98556 -2.1
      vertex -10.5971 -4.71814 -2.1
      vertex -7.60476 -5.52518 -2.1
    endloop
  endfacet
  facet normal 0 0 -1
    outer loop
      vertex -7.60476 -5.52518 -2.1
      vertex -10.5971 -4.71814 -2.1
      vertex -8.58733 -3.82332 -2.1
    endloop
  endfacet
  facet normal 0 0 -1
    outer loop
      vertex -11.3465 -2.41178 -2.1
      vertex -9.19459 -1.95437 -2.1
      vertex -10.5971 -4.71814 -2.1
    endloop
  endfacet
  facet normal -0 0 -1
    outer loop
      vertex -8.58733 -3.82332 -2.1
      vertex -10.5971 -4.71814 -2.1
      vertex -9.19459 -1.95437 -2.1
    endloop
  endfacet
  facet normal 0 0 -1
    outer loop
      vertex 9.4 0 -2.1
      vertex 11.6 0 -2.1
      vertex 11.3465 -2.41178 -2.1
    endloop
  endfacet
  facet normal 0 0 -1
    outer loop
      vertex 9.19459 -1.95437 -2.1
      vertex 11.3465 -2.41178 -2.1
      vertex 10.5971 -4.71814 -2.1
    endloop
  endfacet
  facet normal 0 0 -1
    outer loop
      vertex 11.6 0 -2.1
      vertex 9.4 0 -2.1
      vertex 11.3968 1.93333 -2.1
    endloop
  endfacet
  facet normal -0 0 -1
    outer loop
      vertex 11.3968 1.93333 -2.1
      vertex 9.4 0 -2.1
      vertex 9.1968 1.93333 -2.1
    endloop
  endfacet
  facet normal -0 0 -1
    outer loop
      vertex -9.19459 -1.95437 -2.1
      vertex -11.3465 -2.41178 -2.1
      vertex -9.4 0 -2.1
    endloop
  endfacet
  facet normal 0 0 -1
    outer loop
      vertex -11.6 0 -2.1
      vertex -9.4 0 -2.1
      vertex -11.3465 -2.41178 -2.1
    endloop
  endfacet
  facet normal 0 -0 -1
    outer loop
      vertex -11.3968 1.93333 -2.1
      vertex -9.4 0 -2.1
      vertex -11.6 0 -2.1
    endloop
  endfacet
  facet normal 0 0 -1
    outer loop
      vertex -9.4 0 -2.1
      vertex -11.3968 1.93333 -2.1
      vertex -9.1968 1.93333 -2.1
    endloop
  endfacet
  facet normal -0.207911 0.978148 0
    outer loop
      vertex 2.90476 -8.93993 -2.1
      vertex 0.982567 -9.34851 -0.9
      vertex 2.90476 -8.93993 -0.9
    endloop
  endfacet
  facet normal -0.207911 0.978148 0
    outer loop
      vertex 0.982567 -9.34851 -0.9
      vertex 2.90476 -8.93993 -2.1
      vertex 0.982567 -9.34851 -2.1
    endloop
  endfacet
  facet normal -0.207911 0.978148 0
    outer loop
      vertex 2.90476 -8.93993 0.9
      vertex 0.982567 -9.34851 2.1
      vertex 2.90476 -8.93993 2.1
    endloop
  endfacet
  facet normal -0.207911 0.978148 0
    outer loop
      vertex 0.982567 -9.34851 2.1
      vertex 2.90476 -8.93993 0.9
      vertex 0.982567 -9.34851 0.9
    endloop
  endfacet
  facet normal -0.951057 0.309017 0
    outer loop
      vertex 8.58733 -3.82332 -2.1
      vertex 9.19459 -1.95437 -0.9
      vertex 9.19459 -1.95437 -2.1
    endloop
  endfacet
  facet normal -0.951057 0.309017 0
    outer loop
      vertex 9.19459 -1.95437 -0.9
      vertex 8.58733 -3.82332 -2.1
      vertex 8.58733 -3.82332 -0.9
    endloop
  endfacet
  facet normal -0.951057 0.309017 0
    outer loop
      vertex 8.58733 -3.82332 0.9
      vertex 9.19459 -1.95437 2.1
      vertex 9.19459 -1.95437 0.9
    endloop
  endfacet
  facet normal -0.951057 0.309017 0
    outer loop
      vertex 9.19459 -1.95437 2.1
      vertex 8.58733 -3.82332 0.9
      vertex 8.58733 -3.82332 2.1
    endloop
  endfacet
  facet normal -0.994522 0.104529 0
    outer loop
      vertex 9.19459 -1.95437 0.9
      vertex 9.4 0 2.1
      vertex 9.4 0 0.9
    endloop
  endfacet
  facet normal -0.994522 0.104529 0
    outer loop
      vertex 9.4 0 2.1
      vertex 9.19459 -1.95437 0.9
      vertex 9.19459 -1.95437 2.1
    endloop
  endfacet
  facet normal -0.994522 0.104529 0
    outer loop
      vertex 9.19459 -1.95437 -2.1
      vertex 9.4 0 -0.9
      vertex 9.4 0 -2.1
    endloop
  endfacet
  facet normal -0.994522 0.104529 0
    outer loop
      vertex 9.4 0 -0.9
      vertex 9.19459 -1.95437 -2.1
      vertex 9.19459 -1.95437 -0.9
    endloop
  endfacet
  facet normal 0.866025 0.5 0
    outer loop
      vertex -7.60476 -5.52518 -0.9
      vertex -8.58733 -3.82332 -2.1
      vertex -8.58733 -3.82332 -0.9
    endloop
  endfacet
  facet normal 0.866025 0.5 0
    outer loop
      vertex -8.58733 -3.82332 -2.1
      vertex -7.60476 -5.52518 -0.9
      vertex -7.60476 -5.52518 -2.1
    endloop
  endfacet
  facet normal 0.866025 0.5 0
    outer loop
      vertex -7.60476 -5.52518 2.1
      vertex -8.58733 -3.82332 0.9
      vertex -8.58733 -3.82332 2.1
    endloop
  endfacet
  facet normal 0.866025 0.5 0
    outer loop
      vertex -8.58733 -3.82332 0.9
      vertex -7.60476 -5.52518 2.1
      vertex -7.60476 -5.52518 0.9
    endloop
  endfacet
  facet normal 0.994522 0.104529 0
    outer loop
      vertex -9.19459 -1.95437 2.1
      vertex -9.4 0 0.9
      vertex -9.4 0 2.1
    endloop
  endfacet
  facet normal 0.994522 0.104529 0
    outer loop
      vertex -9.4 0 0.9
      vertex -9.19459 -1.95437 2.1
      vertex -9.19459 -1.95437 0.9
    endloop
  endfacet
  facet normal 0.994522 0.104529 0
    outer loop
      vertex -9.19459 -1.95437 -0.9
      vertex -9.4 0 -2.1
      vertex -9.4 0 -0.9
    endloop
  endfacet
  facet normal 0.994522 0.104529 0
    outer loop
      vertex -9.4 0 -2.1
      vertex -9.19459 -1.95437 -0.9
      vertex -9.19459 -1.95437 -2.1
    endloop
  endfacet
  facet normal -0.587785 0.809017 0
    outer loop
      vertex 6.28983 -6.98556 -2.1
      vertex 4.7 -8.14064 -0.9
      vertex 6.28983 -6.98556 -0.9
    endloop
  endfacet
  facet normal -0.587785 0.809017 0
    outer loop
      vertex 4.7 -8.14064 -0.9
      vertex 6.28983 -6.98556 -2.1
      vertex 4.7 -8.14064 -2.1
    endloop
  endfacet
  facet normal -0.587785 0.809017 0
    outer loop
      vertex 6.28983 -6.98556 0.9
      vertex 4.7 -8.14064 2.1
      vertex 6.28983 -6.98556 2.1
    endloop
  endfacet
  facet normal -0.587785 0.809017 0
    outer loop
      vertex 4.7 -8.14064 2.1
      vertex 6.28983 -6.98556 0.9
      vertex 4.7 -8.14064 0.9
    endloop
  endfacet
  facet normal -0.406737 0.913545 0
    outer loop
      vertex 4.7 -8.14064 0.9
      vertex 2.90476 -8.93993 2.1
      vertex 4.7 -8.14064 2.1
    endloop
  endfacet
  facet normal -0.406737 0.913545 0
    outer loop
      vertex 2.90476 -8.93993 2.1
      vertex 4.7 -8.14064 0.9
      vertex 2.90476 -8.93993 0.9
    endloop
  endfacet
  facet normal -0.406737 0.913545 0
    outer loop
      vertex 4.7 -8.14064 -2.1
      vertex 2.90476 -8.93993 -0.9
      vertex 4.7 -8.14064 -0.9
    endloop
  endfacet
  facet normal -0.406737 0.913545 0
    outer loop
      vertex 2.90476 -8.93993 -0.9
      vertex 4.7 -8.14064 -2.1
      vertex 2.90476 -8.93993 -2.1
    endloop
  endfacet
  facet normal 0.207911 0.978148 -0
    outer loop
      vertex -0.982567 -9.34851 -2.1
      vertex -2.90476 -8.93993 -0.9
      vertex -0.982567 -9.34851 -0.9
    endloop
  endfacet
  facet normal 0.207911 0.978148 0
    outer loop
      vertex -2.90476 -8.93993 -0.9
      vertex -0.982567 -9.34851 -2.1
      vertex -2.90476 -8.93993 -2.1
    endloop
  endfacet
  facet normal 0.207911 0.978148 -0
    outer loop
      vertex -0.982567 -9.34851 0.9
      vertex -2.90476 -8.93993 2.1
      vertex -0.982567 -9.34851 2.1
    endloop
  endfacet
  facet normal 0.207911 0.978148 0
    outer loop
      vertex -2.90476 -8.93993 2.1
      vertex -0.982567 -9.34851 0.9
      vertex -2.90476 -8.93993 0.9
    endloop
  endfacet
  facet normal 0.743145 0.669131 0
    outer loop
      vertex -6.28983 -6.98556 -0.9
      vertex -7.60476 -5.52518 -2.1
      vertex -7.60476 -5.52518 -0.9
    endloop
  endfacet
  facet normal 0.743145 0.669131 0
    outer loop
      vertex -7.60476 -5.52518 -2.1
      vertex -6.28983 -6.98556 -0.9
      vertex -6.28983 -6.98556 -2.1
    endloop
  endfacet
  facet normal 0.743145 0.669131 0
    outer loop
      vertex -6.28983 -6.98556 2.1
      vertex -7.60476 -5.52518 0.9
      vertex -7.60476 -5.52518 2.1
    endloop
  endfacet
  facet normal 0.743145 0.669131 0
    outer loop
      vertex -7.60476 -5.52518 0.9
      vertex -6.28983 -6.98556 2.1
      vertex -6.28983 -6.98556 0.9
    endloop
  endfacet
  facet normal 0.951057 0.309017 0
    outer loop
      vertex -8.58733 -3.82332 2.1
      vertex -9.19459 -1.95437 0.9
      vertex -9.19459 -1.95437 2.1
    endloop
  endfacet
  facet normal 0.951057 0.309017 0
    outer loop
      vertex -9.19459 -1.95437 0.9
      vertex -8.58733 -3.82332 2.1
      vertex -8.58733 -3.82332 0.9
    endloop
  endfacet
  facet normal 0.951057 0.309017 0
    outer loop
      vertex -8.58733 -3.82332 -0.9
      vertex -9.19459 -1.95437 -2.1
      vertex -9.19459 -1.95437 -0.9
    endloop
  endfacet
  facet normal 0.951057 0.309017 0
    outer loop
      vertex -9.19459 -1.95437 -2.1
      vertex -8.58733 -3.82332 -0.9
      vertex -8.58733 -3.82332 -2.1
    endloop
  endfacet
  facet normal -0.743145 0.669131 0
    outer loop
      vertex 6.28983 -6.98556 -2.1
      vertex 7.60476 -5.52518 -0.9
      vertex 7.60476 -5.52518 -2.1
    endloop
  endfacet
  facet normal -0.743145 0.669131 0
    outer loop
      vertex 7.60476 -5.52518 -0.9
      vertex 6.28983 -6.98556 -2.1
      vertex 6.28983 -6.98556 -0.9
    endloop
  endfacet
  facet normal -0.743145 0.669131 0
    outer loop
      vertex 6.28983 -6.98556 0.9
      vertex 7.60476 -5.52518 2.1
      vertex 7.60476 -5.52518 0.9
    endloop
  endfacet
  facet normal -0.743145 0.669131 0
    outer loop
      vertex 7.60476 -5.52518 2.1
      vertex 6.28983 -6.98556 0.9
      vertex 6.28983 -6.98556 2.1
    endloop
  endfacet
  facet normal 0.406737 0.913545 -0
    outer loop
      vertex -2.90476 -8.93993 -2.1
      vertex -4.7 -8.14064 -0.9
      vertex -2.90476 -8.93993 -0.9
    endloop
  endfacet
  facet normal 0.406737 0.913545 0
    outer loop
      vertex -4.7 -8.14064 -0.9
      vertex -2.90476 -8.93993 -2.1
      vertex -4.7 -8.14064 -2.1
    endloop
  endfacet
  facet normal 0.406737 0.913545 -0
    outer loop
      vertex -2.90476 -8.93993 0.9
      vertex -4.7 -8.14064 2.1
      vertex -2.90476 -8.93993 2.1
    endloop
  endfacet
  facet normal 0.406737 0.913545 0
    outer loop
      vertex -4.7 -8.14064 2.1
      vertex -2.90476 -8.93993 0.9
      vertex -4.7 -8.14064 0.9
    endloop
  endfacet
  facet normal 0.587785 0.809017 -0
    outer loop
      vertex -4.7 -8.14064 0.9
      vertex -6.28983 -6.98556 2.1
      vertex -4.7 -8.14064 2.1
    endloop
  endfacet
  facet normal 0.587785 0.809017 0
    outer loop
      vertex -6.28983 -6.98556 2.1
      vertex -4.7 -8.14064 0.9
      vertex -6.28983 -6.98556 0.9
    endloop
  endfacet
  facet normal 0.587785 0.809017 -0
    outer loop
      vertex -4.7 -8.14064 -2.1
      vertex -6.28983 -6.98556 -0.9
      vertex -4.7 -8.14064 -0.9
    endloop
  endfacet
  facet normal 0.587785 0.809017 0
    outer loop
      vertex -6.28983 -6.98556 -0.9
      vertex -4.7 -8.14064 -2.1
      vertex -6.28983 -6.98556 -2.1
    endloop
  endfacet
  facet normal 0 1 -0
    outer loop
      vertex -9.1968 1.93333 0.9
      vertex -11.3968 1.93333 2.1
      vertex -9.1968 1.93333 2.1
    endloop
  endfacet
  facet normal 0 1 -0
    outer loop
      vertex -10.2495 1.93333 0.110478
      vertex -11.3968 1.93333 2.1
      vertex -9.1968 1.93333 0.9
    endloop
  endfacet
  facet normal 0 1 -0
    outer loop
      vertex -10.3968 1.93333 0
      vertex -11.3968 1.93333 2.1
      vertex -10.2495 1.93333 0.110478
    endloop
  endfacet
  facet normal 0 1 0
    outer loop
      vertex -11.3968 1.93333 -2.1
      vertex -9.1968 1.93333 -0.9
      vertex -9.1968 1.93333 -2.1
    endloop
  endfacet
  facet normal 0 1 0
    outer loop
      vertex -9.1968 1.93333 -0.9
      vertex -11.3968 1.93333 -2.1
      vertex -10.2495 1.93333 -0.110478
    endloop
  endfacet
  facet normal 0 1 0
    outer loop
      vertex -10.3968 1.93333 0
      vertex -11.3968 1.93333 -2.1
      vertex -11.3968 1.93333 2.1
    endloop
  endfacet
  facet normal 0 1 0
    outer loop
      vertex -10.2495 1.93333 -0.110478
      vertex -11.3968 1.93333 -2.1
      vertex -10.3968 1.93333 0
    endloop
  endfacet
  facet normal 0 1 0
    outer loop
      vertex 11.3968 1.93333 2.1
      vertex 9.1968 1.93333 0.9
      vertex 9.1968 1.93333 2.1
    endloop
  endfacet
  facet normal 0 1 0
    outer loop
      vertex 11.3968 1.93333 2.1
      vertex 10.2495 1.93333 0.110478
      vertex 9.1968 1.93333 0.9
    endloop
  endfacet
  facet normal 0 1 0
    outer loop
      vertex 11.3968 1.93333 2.1
      vertex 10.3968 1.93333 0
      vertex 10.2495 1.93333 0.110478
    endloop
  endfacet
  facet normal 0 1 -0
    outer loop
      vertex 11.3968 1.93333 -2.1
      vertex 10.3968 1.93333 0
      vertex 11.3968 1.93333 2.1
    endloop
  endfacet
  facet normal 0 1 0
    outer loop
      vertex 11.3968 1.93333 -2.1
      vertex 10.2495 1.93333 -0.110478
      vertex 10.3968 1.93333 0
    endloop
  endfacet
  facet normal 0 1 0
    outer loop
      vertex 11.3968 1.93333 -2.1
      vertex 9.1968 1.93333 -0.9
      vertex 10.2495 1.93333 -0.110478
    endloop
  endfacet
  facet normal 0 1 0
    outer loop
      vertex 9.1968 1.93333 -0.9
      vertex 11.3968 1.93333 -2.1
      vertex 9.1968 1.93333 -2.1
    endloop
  endfacet
  facet normal 0.939391 -0.342847 0
    outer loop
      vertex 2.1 -28 2.1
      vertex 10.5971 -4.71814 -2.1
      vertex 10.5971 -4.71814 2.1
    endloop
  endfacet
  facet normal 0.939391 -0.342847 0
    outer loop
      vertex 10.5971 -4.71814 -2.1
      vertex 2.1 -28 2.1
      vertex 2.1 -28 -2.1
    endloop
  endfacet
  facet normal -0.994522 0.104528 0
    outer loop
      vertex -11.6 0 -2.1
      vertex -11.3968 1.93333 2.1
      vertex -11.3968 1.93333 -2.1
    endloop
  endfacet
  facet normal -0.994522 0.104528 0
    outer loop
      vertex -11.3968 1.93333 2.1
      vertex -11.6 0 -2.1
      vertex -11.6 0 2.1
    endloop
  endfacet
  facet normal 0 -1 0
    outer loop
      vertex -2.1 -28 -2.1
      vertex 2.1 -28 2.1
      vertex -2.1 -28 2.1
    endloop
  endfacet
  facet normal 0 -1 -0
    outer loop
      vertex 2.1 -28 2.1
      vertex -2.1 -28 -2.1
      vertex 2.1 -28 -2.1
    endloop
  endfacet
  facet normal -0.939391 -0.342847 0
    outer loop
      vertex -2.1 -28 -2.1
      vertex -10.5971 -4.71814 2.1
      vertex -10.5971 -4.71814 -2.1
    endloop
  endfacet
  facet normal -0.939391 -0.342847 0
    outer loop
      vertex -10.5971 -4.71814 2.1
      vertex -2.1 -28 -2.1
      vertex -2.1 -28 2.1
    endloop
  endfacet
  facet normal -0.951056 -0.309017 0
    outer loop
      vertex -10.5971 -4.71814 -2.1
      vertex -11.3465 -2.41178 2.1
      vertex -11.3465 -2.41178 -2.1
    endloop
  endfacet
  facet normal -0.951056 -0.309017 0
    outer loop
      vertex -11.3465 -2.41178 2.1
      vertex -10.5971 -4.71814 -2.1
      vertex -10.5971 -4.71814 2.1
    endloop
  endfacet
  facet normal 0.994522 0.104528 0
    outer loop
      vertex 11.6 0 2.1
      vertex 11.3968 1.93333 -2.1
      vertex 11.3968 1.93333 2.1
    endloop
  endfacet
  facet normal 0.994522 0.104528 0
    outer loop
      vertex 11.3968 1.93333 -2.1
      vertex 11.6 0 2.1
      vertex 11.6 0 -2.1
    endloop
  endfacet
  facet normal 0.951056 -0.309017 0
    outer loop
      vertex 10.5971 -4.71814 2.1
      vertex 11.3465 -2.41178 -2.1
      vertex 11.3465 -2.41178 2.1
    endloop
  endfacet
  facet normal 0.951056 -0.309017 0
    outer loop
      vertex 11.3465 -2.41178 -2.1
      vertex 10.5971 -4.71814 2.1
      vertex 10.5971 -4.71814 -2.1
    endloop
  endfacet
  facet normal 0.994522 -0.104528 0
    outer loop
      vertex 11.3465 -2.41178 2.1
      vertex 11.6 0 -2.1
      vertex 11.6 0 2.1
    endloop
  endfacet
  facet normal 0.994522 -0.104528 0
    outer loop
      vertex 11.6 0 -2.1
      vertex 11.3465 -2.41178 2.1
      vertex 11.3465 -2.41178 -2.1
    endloop
  endfacet
  facet normal -0.994522 -0.104528 0
    outer loop
      vertex -11.3465 -2.41178 -2.1
      vertex -11.6 0 2.1
      vertex -11.6 0 -2.1
    endloop
  endfacet
  facet normal -0.994522 -0.104528 0
    outer loop
      vertex -11.6 0 2.1
      vertex -11.3465 -2.41178 -2.1
      vertex -11.3465 -2.41178 2.1
    endloop
  endfacet
  facet normal -1 0 0
    outer loop
      vertex -11.6 -30 -5
      vertex -11.6 -28 5
      vertex -11.6 -28 -5
    endloop
  endfacet
  facet normal -1 -0 0
    outer loop
      vertex -11.6 -28 5
      vertex -11.6 -30 -5
      vertex -11.6 -30 5
    endloop
  endfacet
  facet normal -0 0 1
    outer loop
      vertex -11.6 -28 5
      vertex 11.6 -30 5
      vertex 11.6 -28 5
    endloop
  endfacet
  facet normal 0 0 1
    outer loop
      vertex 11.6 -30 5
      vertex -11.6 -28 5
      vertex -11.6 -30 5
    endloop
  endfacet
  facet normal 1 -0 0
    outer loop
      vertex 11.6 -30 5
      vertex 11.6 -28 -5
      vertex 11.6 -28 5
    endloop
  endfacet
  facet normal 1 0 0
    outer loop
      vertex 11.6 -28 -5
      vertex 11.6 -30 5
      vertex 11.6 -30 -5
    endloop
  endfacet
  facet normal 0 1 -0
    outer loop
      vertex 11.6 -28 -5
      vertex -11.6 -28 5
      vertex 11.6 -28 5
    endloop
  endfacet
  facet normal 0 1 0
    outer loop
      vertex -11.6 -28 5
      vertex 11.6 -28 -5
      vertex -11.6 -28 -5
    endloop
  endfacet
  facet normal 0 0 -1
    outer loop
      vertex -11.6 -30 -5
      vertex 11.6 -28 -5
      vertex 11.6 -30 -5
    endloop
  endfacet
  facet normal -0 0 -1
    outer loop
      vertex 11.6 -28 -5
      vertex -11.6 -30 -5
      vertex -11.6 -28 -5
    endloop
  endfacet
  facet normal 0 -1 0
    outer loop
      vertex -11.6 -30 -5
      vertex 11.6 -30 5
      vertex -11.6 -30 5
    endloop
  endfacet
  facet normal 0 -1 -0
    outer loop
      vertex 11.6 -30 5
      vertex -11.6 -30 -5
      vertex 11.6 -30 -5
    endloop
  endfacet
endsolid OpenSCAD_Model
