solid OpenSCAD_Model
  facet normal -0.598726 -0.0651154 -0.798302
    outer loop
      vertex 7.8 0 0.9
      vertex 7.62597 1.66667 0.894577
      vertex 9 0 0
    endloop
  endfacet
  facet normal -0.598714 -0.0651142 -0.798312
    outer loop
      vertex 7.62597 1.66667 0.894577
      vertex 7.8 0 0.9
      vertex 7.61874 1.66667 0.9
    endloop
  endfacet
  facet normal -0.598727 -0.0651159 -0.798302
    outer loop
      vertex 8.81874 1.66667 0
      vertex 9 0 0
      vertex 7.62597 1.66667 0.894577
    endloop
  endfacet
  facet normal -0.222918 0.559483 -0.798302
    outer loop
      vertex 3.65359 -6.89139 0.9
      vertex 4.21568 -7.95161 0
      vertex 2.40775 -8.67195 0
    endloop
  endfacet
  facet normal -0.598726 0.0651157 -0.798302
    outer loop
      vertex 9 0 0
      vertex 8.78958 -1.93473 0
      vertex 7.61764 -1.67677 0.9
    endloop
  endfacet
  facet normal 0 0 -1
    outer loop
      vertex -7.75428 -0.843328 0.9
      vertex -7.73849 0.915023 0.9
      vertex -7.73849 -0.915023 0.9
    endloop
  endfacet
  facet normal 0 0 -1
    outer loop
      vertex -7.73849 0.915023 0.9
      vertex -7.75428 -0.843328 0.9
      vertex -7.75428 0.843328 0.9
    endloop
  endfacet
  facet normal 0 0 -1
    outer loop
      vertex 7.38093 -2.3793 0.9
      vertex 7.07909 -3.27513 0.9
      vertex 6.92456 -3.53197 0.9
    endloop
  endfacet
  facet normal 0 0 -1
    outer loop
      vertex -6.45438 -4.3227 0.9
      vertex -6.68349 -4.02132 0.9
      vertex -7.02032 -3.29326 0.9
    endloop
  endfacet
  facet normal 0 0 -1
    outer loop
      vertex -1.2619 -7.69725 0.9
      vertex 0.458419 -7.78264 0.9
      vertex 0.422283 -7.78856 0.9
    endloop
  endfacet
  facet normal 0 0 -1
    outer loop
      vertex 0.458419 -7.78264 0.9
      vertex -1.2619 -7.69725 0.9
      vertex -1.36828 -7.66771 0.9
    endloop
  endfacet
  facet normal 0 0 -1
    outer loop
      vertex 2.25871 -7.44717 0.9
      vertex 2.08672 -7.51569 0.9
      vertex 0.754918 -7.73403 0.9
    endloop
  endfacet
  facet normal 0 0 -1
    outer loop
      vertex -5.2463 -5.7178 0.9
      vertex -5.66276 -5.36406 0.9
      vertex -6.02089 -4.89295 0.9
    endloop
  endfacet
  facet normal 0 0 -1
    outer loop
      vertex -3.72054 -6.80414 0.9
      vertex -4.37726 -6.45597 0.9
      vertex -4.69662 -6.1847 0.9
    endloop
  endfacet
  facet normal 0 0 -1
    outer loop
      vertex -1.88537 -7.52414 0.9
      vertex -2.88708 -7.24602 0.9
      vertex -3.11779 -7.1237 0.9
    endloop
  endfacet
  facet normal 0 0 -1
    outer loop
      vertex 3.93406 -6.70123 0.9
      vertex 3.65359 -6.89139 0.9
      vertex 2.84691 -7.2128 0.9
    endloop
  endfacet
  facet normal 0 0 -1
    outer loop
      vertex 5.39534 -5.57989 0.9
      vertex 5.04961 -5.94486 0.9
      vertex 4.52053 -6.30359 0.9
    endloop
  endfacet
  facet normal 0 0 -1
    outer loop
      vertex 6.56496 -4.12961 0.9
      vertex 6.20953 -4.72036 0.9
      vertex 5.89295 -5.05456 0.9
    endloop
  endfacet
  facet normal 0 0 -1
    outer loop
      vertex 7.8 0 0.9
      vertex 7.61764 -1.67677 0.9
      vertex 7.5705 -1.81668 0.9
    endloop
  endfacet
  facet normal -0 -0 -1
    outer loop
      vertex 7.61874 1.66667 0.9
      vertex 7.8 0 0.9
      vertex 7.58945 1.66667 0.9
    endloop
  endfacet
  facet normal 0 0 -1
    outer loop
      vertex -7.29808 -2.69289 0.9
      vertex -7.39169 -2.49055 0.9
      vertex -7.64197 -1.35353 0.9
    endloop
  endfacet
  facet normal 0 -0 -1
    outer loop
      vertex -7.57304 1.66667 0.9
      vertex -7.56157 1.66667 0.9
      vertex -7.64197 1.35353 0.9
    endloop
  endfacet
  facet normal 0.282104 0.532105 -0.798299
    outer loop
      vertex -2.88708 -7.24602 0.9
      vertex -3.32108 -7.05765 0.872188
      vertex -3.11779 -7.1237 0.9
    endloop
  endfacet
  facet normal 0.282102 0.532101 -0.798302
    outer loop
      vertex -5.05068 -7.4492 0
      vertex -3.72054 -6.80414 0.9
      vertex -3.32108 -7.05765 0.872188
    endloop
  endfacet
  facet normal 0.282102 0.532101 -0.798302
    outer loop
      vertex -3.72054 -6.80414 0.9
      vertex -5.05068 -7.4492 0
      vertex -4.37726 -6.45597 0.9
    endloop
  endfacet
  facet normal 0.282102 0.532101 -0.798302
    outer loop
      vertex -5.05068 -7.4492 0
      vertex -3.32108 -7.05765 0.872188
      vertex -2.88708 -7.24602 0.9
    endloop
  endfacet
  facet normal -0.0974343 0.594323 -0.798302
    outer loop
      vertex 2.08672 -7.51569 0.9
      vertex 2.40775 -8.67195 0
      vertex 0.487249 -8.9868 0
    endloop
  endfacet
  facet normal -0.337979 0.498482 -0.798302
    outer loop
      vertex 5.82648 -6.85946 0
      vertex 4.52053 -6.30359 0.9
      vertex 5.04961 -5.94486 0.9
    endloop
  endfacet
  facet normal -0.337979 0.498481 -0.798302
    outer loop
      vertex 5.82648 -6.85946 0
      vertex 4.17945 -6.58576 0.868212
      vertex 4.52053 -6.30359 0.9
    endloop
  endfacet
  facet normal -0.337979 0.498481 -0.798302
    outer loop
      vertex 5.82648 -6.85946 0
      vertex 3.93406 -6.70123 0.9
      vertex 4.17945 -6.58576 0.868212
    endloop
  endfacet
  facet normal -0.337979 0.498482 -0.798302
    outer loop
      vertex 3.93406 -6.70123 0.9
      vertex 5.82648 -6.85946 0
      vertex 3.65359 -6.89139 0.9
    endloop
  endfacet
  facet normal -0.516048 0.310496 -0.798302
    outer loop
      vertex 8.16818 -3.779 0
      vertex 6.92456 -3.53197 0.9
      vertex 7.07909 -3.27513 0.9
    endloop
  endfacet
  facet normal -0.516048 0.310496 -0.798302
    outer loop
      vertex 8.16818 -3.779 0
      vertex 6.83519 -3.75768 0.869979
      vertex 6.92456 -3.53197 0.9
    endloop
  endfacet
  facet normal -0.516048 0.310496 -0.798302
    outer loop
      vertex 8.16818 -3.779 0
      vertex 6.56496 -4.12961 0.9
      vertex 6.83519 -3.75768 0.869979
    endloop
  endfacet
  facet normal -0.516048 0.310496 -0.798302
    outer loop
      vertex 6.56496 -4.12961 0.9
      vertex 8.16818 -3.779 0
      vertex 6.20953 -4.72036 0.9
    endloop
  endfacet
  facet normal 0.588176 0.129467 -0.798302
    outer loop
      vertex -8.52888 -2.87371 0
      vertex -7.64197 -1.35353 0.9
      vertex -7.39169 -2.49055 0.9
    endloop
  endfacet
  facet normal 0.588176 0.129467 -0.798303
    outer loop
      vertex -7.73849 -0.977599 0.889851
      vertex -7.75428 -0.843328 0.9
      vertex -7.73849 -0.915023 0.9
    endloop
  endfacet
  facet normal 0.588176 0.129467 -0.798302
    outer loop
      vertex -7.73849 -0.977599 0.889851
      vertex -8.52888 -2.87371 0
      vertex -7.75428 -0.843328 0.9
    endloop
  endfacet
  facet normal 0.588176 0.129467 -0.798302
    outer loop
      vertex -7.64197 -1.35353 0.9
      vertex -8.52888 -2.87371 0
      vertex -7.73849 -0.977599 0.889851
    endloop
  endfacet
  facet normal 0.546593 0.252881 -0.798302
    outer loop
      vertex -6.68349 -4.02132 0.9
      vertex -7.71171 -4.63998 0
      vertex -8.52888 -2.87371 0
    endloop
  endfacet
  facet normal 0.479453 0.36447 -0.798303
    outer loop
      vertex -7.71171 -4.63998 0
      vertex -6.02089 -4.89295 0.9
      vertex -5.66276 -5.36406 0.9
    endloop
  endfacet
  facet normal 0.479453 0.36447 -0.798302
    outer loop
      vertex -7.71171 -4.63998 0
      vertex -6.45438 -4.3227 0.9
      vertex -6.31033 -4.58472 0.866885
    endloop
  endfacet
  facet normal 0.479453 0.36447 -0.798302
    outer loop
      vertex -6.45438 -4.3227 0.9
      vertex -7.71171 -4.63998 0
      vertex -6.68349 -4.02132 0.9
    endloop
  endfacet
  facet normal 0.479453 0.36447 -0.798302
    outer loop
      vertex -6.02089 -4.89295 0.9
      vertex -7.71171 -4.63998 0
      vertex -6.31033 -4.58472 0.866885
    endloop
  endfacet
  facet normal 0.0326054 0.601374 -0.798302
    outer loop
      vertex 0.422283 -7.78856 0.9
      vertex 0.487249 -8.9868 0
      vertex -1.2619 -7.69725 0.9
    endloop
  endfacet
  facet normal 0.479453 0.36447 -0.798302
    outer loop
      vertex -5.66276 -5.36406 0.9
      vertex -6.53396 -6.18929 0
      vertex -7.71171 -4.63998 0
    endloop
  endfacet
  facet normal 0.161121 0.580305 -0.798302
    outer loop
      vertex -2.88708 -7.24602 0.9
      vertex -1.45604 -8.88144 0
      vertex -3.33124 -8.36079 0
    endloop
  endfacet
  facet normal -0.337979 0.498482 -0.798302
    outer loop
      vertex 5.82648 -6.85946 0
      vertex 4.21568 -7.95161 0
      vertex 3.65359 -6.89139 0.9
    endloop
  endfacet
  facet normal -0.222918 0.559483 -0.798302
    outer loop
      vertex 2.40775 -8.67195 0
      vertex 2.84691 -7.2128 0.9
      vertex 3.65359 -6.89139 0.9
    endloop
  endfacet
  facet normal -0.222919 0.559483 -0.798302
    outer loop
      vertex 2.84691 -7.2128 0.9
      vertex 2.40775 -8.67195 0
      vertex 2.41033 -7.41824 0.877931
    endloop
  endfacet
  facet normal -0.222919 0.559483 -0.798302
    outer loop
      vertex 2.40775 -8.67195 0
      vertex 2.25871 -7.44717 0.9
      vertex 2.41033 -7.41824 0.877931
    endloop
  endfacet
  facet normal -0.222918 0.559483 -0.798302
    outer loop
      vertex 2.25871 -7.44717 0.9
      vertex 2.40775 -8.67195 0
      vertex 2.08672 -7.51569 0.9
    endloop
  endfacet
  facet normal -0.516048 0.310496 -0.798302
    outer loop
      vertex 8.16818 -3.779 0
      vertex 7.16484 -5.44657 0
      vertex 6.20953 -4.72036 0.9
    endloop
  endfacet
  facet normal -0.598726 0.0651154 -0.798302
    outer loop
      vertex 7.8 0 0.9
      vertex 9 0 0
      vertex 7.61764 -1.67677 0.9
    endloop
  endfacet
  facet normal 0.588176 0.129467 -0.798302
    outer loop
      vertex -7.75428 -0.843328 0.9
      vertex -8.52888 -2.87371 0
      vertex -8.94724 -0.973071 0
    endloop
  endfacet
  facet normal 0.588176 -0.129467 -0.798302
    outer loop
      vertex -8.94724 0.973071 0
      vertex -8.06838 1.66667 0.535042
      vertex -7.75428 0.843328 0.9
    endloop
  endfacet
  facet normal 0.588177 -0.129467 -0.798302
    outer loop
      vertex -8.06838 1.66667 0.535042
      vertex -8.94724 0.973071 0
      vertex -8.79457 1.66667 0
    endloop
  endfacet
  facet normal 0.588176 -0.129467 -0.798303
    outer loop
      vertex -7.73849 0.915023 0.9
      vertex -7.75428 0.843328 0.9
      vertex -7.73849 0.977599 0.889851
    endloop
  endfacet
  facet normal 0.588176 -0.129467 -0.798302
    outer loop
      vertex -8.06838 1.66667 0.535042
      vertex -7.64197 1.35353 0.9
      vertex -7.73849 0.977599 0.889851
    endloop
  endfacet
  facet normal 0.588176 -0.129467 -0.798302
    outer loop
      vertex -7.64197 1.35353 0.9
      vertex -8.06838 1.66667 0.535042
      vertex -7.57304 1.66667 0.9
    endloop
  endfacet
  facet normal 0.588176 -0.129467 -0.798302
    outer loop
      vertex -8.06838 1.66667 0.535042
      vertex -7.73849 0.977599 0.889851
      vertex -7.75428 0.843328 0.9
    endloop
  endfacet
  facet normal -0.0974342 0.594323 -0.798302
    outer loop
      vertex 0.487249 -8.9868 0
      vertex 0.754918 -7.73403 0.9
      vertex 2.08672 -7.51569 0.9
    endloop
  endfacet
  facet normal -0.0974338 0.594323 -0.798302
    outer loop
      vertex 0.754918 -7.73403 0.9
      vertex 0.487249 -8.9868 0
      vertex 0.489765 -7.78461 0.894706
    endloop
  endfacet
  facet normal -0.0974343 0.594323 -0.798302
    outer loop
      vertex 0.422283 -7.78856 0.9
      vertex 0.489765 -7.78461 0.894706
      vertex 0.487249 -8.9868 0
    endloop
  endfacet
  facet normal -0.0974343 0.594317 -0.798307
    outer loop
      vertex 0.489765 -7.78461 0.894706
      vertex 0.422283 -7.78856 0.9
      vertex 0.458419 -7.78264 0.9
    endloop
  endfacet
  facet normal 0.546593 0.252881 -0.798302
    outer loop
      vertex -8.52888 -2.87371 0
      vertex -7.02032 -3.29326 0.9
      vertex -6.68349 -4.02132 0.9
    endloop
  endfacet
  facet normal 0.546593 0.252881 -0.798302
    outer loop
      vertex -8.52888 -2.87371 0
      vertex -7.29808 -2.69289 0.9
      vertex -7.25226 -2.87137 0.874838
    endloop
  endfacet
  facet normal 0.546594 0.252881 -0.798302
    outer loop
      vertex -7.29808 -2.69289 0.9
      vertex -8.52888 -2.87371 0
      vertex -7.39169 -2.49055 0.9
    endloop
  endfacet
  facet normal 0.546593 0.252881 -0.798302
    outer loop
      vertex -7.02032 -3.29326 0.9
      vertex -8.52888 -2.87371 0
      vertex -7.25226 -2.87137 0.874838
    endloop
  endfacet
  facet normal 0.389892 0.459018 -0.798302
    outer loop
      vertex -5.05068 -7.4492 0
      vertex -4.69662 -6.1847 0.9
      vertex -4.37726 -6.45597 0.9
    endloop
  endfacet
  facet normal 0.389893 0.459017 -0.798302
    outer loop
      vertex -4.69662 -6.1847 0.9
      vertex -5.05068 -7.4492 0
      vertex -4.97191 -6.01 0.866002
    endloop
  endfacet
  facet normal 0.389892 0.459018 -0.798303
    outer loop
      vertex -5.05068 -7.4492 0
      vertex -5.2463 -5.7178 0.9
      vertex -4.97191 -6.01 0.866002
    endloop
  endfacet
  facet normal 0.389893 0.459017 -0.798302
    outer loop
      vertex -5.2463 -5.7178 0.9
      vertex -5.05068 -7.4492 0
      vertex -5.66276 -5.36406 0.9
    endloop
  endfacet
  facet normal 0.389893 0.459017 -0.798302
    outer loop
      vertex -5.66276 -5.36406 0.9
      vertex -5.05068 -7.4492 0
      vertex -6.53396 -6.18929 0
    endloop
  endfacet
  facet normal 0.0326055 0.601374 -0.798302
    outer loop
      vertex -1.2619 -7.69725 0.9
      vertex 0.487249 -8.9868 0
      vertex -1.45604 -8.88144 0
    endloop
  endfacet
  facet normal 0.161121 0.580305 -0.798302
    outer loop
      vertex -1.46157 -7.66184 0.885437
      vertex -1.2619 -7.69725 0.9
      vertex -1.45604 -8.88144 0
    endloop
  endfacet
  facet normal 0.16112 0.580301 -0.798305
    outer loop
      vertex -1.2619 -7.69725 0.9
      vertex -1.46157 -7.66184 0.885437
      vertex -1.36828 -7.66771 0.9
    endloop
  endfacet
  facet normal 0.161121 0.580305 -0.798302
    outer loop
      vertex -1.45604 -8.88144 0
      vertex -1.88537 -7.52414 0.9
      vertex -1.46157 -7.66184 0.885437
    endloop
  endfacet
  facet normal 0.161121 0.580305 -0.798302
    outer loop
      vertex -1.88537 -7.52414 0.9
      vertex -1.45604 -8.88144 0
      vertex -2.88708 -7.24602 0.9
    endloop
  endfacet
  facet normal -0.437236 0.414172 -0.798302
    outer loop
      vertex 7.16484 -5.44657 0
      vertex 5.82648 -6.85946 0
      vertex 5.04961 -5.94486 0.9
    endloop
  endfacet
  facet normal -0.437236 0.414172 -0.798302
    outer loop
      vertex 7.16484 -5.44657 0
      vertex 5.89295 -5.05456 0.9
      vertex 6.20953 -4.72036 0.9
    endloop
  endfacet
  facet normal -0.437236 0.414172 -0.798302
    outer loop
      vertex 7.16484 -5.44657 0
      vertex 5.68596 -5.33947 0.86556
      vertex 5.89295 -5.05456 0.9
    endloop
  endfacet
  facet normal -0.437236 0.414172 -0.798302
    outer loop
      vertex 7.16484 -5.44657 0
      vertex 5.39534 -5.57989 0.9
      vertex 5.68596 -5.33947 0.86556
    endloop
  endfacet
  facet normal -0.437236 0.414172 -0.798302
    outer loop
      vertex 5.39534 -5.57989 0.9
      vertex 7.16484 -5.44657 0
      vertex 5.04961 -5.94486 0.9
    endloop
  endfacet
  facet normal -0.570731 0.192301 -0.798302
    outer loop
      vertex 7.55495 -1.93978 0.881464
      vertex 7.61764 -1.67677 0.9
      vertex 8.16818 -3.779 0
    endloop
  endfacet
  facet normal -0.570727 0.192301 -0.798305
    outer loop
      vertex 7.61764 -1.67677 0.9
      vertex 7.55495 -1.93978 0.881464
      vertex 7.5705 -1.81668 0.9
    endloop
  endfacet
  facet normal -0.570731 0.192301 -0.798302
    outer loop
      vertex 8.16818 -3.779 0
      vertex 7.38093 -2.3793 0.9
      vertex 7.55495 -1.93978 0.881464
    endloop
  endfacet
  facet normal -0.570731 0.192301 -0.798302
    outer loop
      vertex 7.38093 -2.3793 0.9
      vertex 8.16818 -3.779 0
      vertex 7.07909 -3.27513 0.9
    endloop
  endfacet
  facet normal -0.570731 0.192301 -0.798302
    outer loop
      vertex 8.78958 -1.93473 0
      vertex 8.16818 -3.779 0
      vertex 7.61764 -1.67677 0.9
    endloop
  endfacet
  facet normal 0.602257 0 -0.798302
    outer loop
      vertex -8.94724 -0.973071 0
      vertex -7.75428 0.843328 0.9
      vertex -7.75428 -0.843328 0.9
    endloop
  endfacet
  facet normal 0.602257 0 -0.798302
    outer loop
      vertex -7.75428 0.843328 0.9
      vertex -8.94724 -0.973071 0
      vertex -8.94724 0.973071 0
    endloop
  endfacet
  facet normal 0.282102 0.532101 -0.798302
    outer loop
      vertex -2.88708 -7.24602 0.9
      vertex -3.33124 -8.36079 0
      vertex -5.05068 -7.4492 0
    endloop
  endfacet
  facet normal -0.598726 -0.0651154 0.798302
    outer loop
      vertex 7.62597 1.66667 -0.894577
      vertex 7.8 0 -0.9
      vertex 9 0 0
    endloop
  endfacet
  facet normal -0.598714 -0.0651142 0.798312
    outer loop
      vertex 7.8 0 -0.9
      vertex 7.62597 1.66667 -0.894577
      vertex 7.61874 1.66667 -0.9
    endloop
  endfacet
  facet normal -0.0974338 0.594323 0.798302
    outer loop
      vertex 0.487249 -8.9868 0
      vertex 0.754918 -7.73403 -0.9
      vertex 0.489765 -7.78461 -0.894706
    endloop
  endfacet
  facet normal -0.0974342 0.594323 0.798302
    outer loop
      vertex 0.754918 -7.73403 -0.9
      vertex 0.487249 -8.9868 0
      vertex 2.08672 -7.51569 -0.9
    endloop
  endfacet
  facet normal -0.0974343 0.594317 0.798307
    outer loop
      vertex 0.422283 -7.78856 -0.9
      vertex 0.489765 -7.78461 -0.894706
      vertex 0.458419 -7.78264 -0.9
    endloop
  endfacet
  facet normal -0.0974343 0.594323 0.798302
    outer loop
      vertex 0.489765 -7.78461 -0.894706
      vertex 0.422283 -7.78856 -0.9
      vertex 0.487249 -8.9868 0
    endloop
  endfacet
  facet normal -0.598726 0.0651157 0.798302
    outer loop
      vertex 8.78958 -1.93473 0
      vertex 9 0 0
      vertex 7.61764 -1.67677 -0.9
    endloop
  endfacet
  facet normal 0.588176 0.129467 0.798302
    outer loop
      vertex -8.52888 -2.87371 0
      vertex -7.75428 -0.843328 -0.9
      vertex -8.94724 -0.973071 0
    endloop
  endfacet
  facet normal -0.437236 0.414172 0.798302
    outer loop
      vertex 5.82648 -6.85946 0
      vertex 7.16484 -5.44657 0
      vertex 5.04961 -5.94486 -0.9
    endloop
  endfacet
  facet normal 0.546593 0.252881 0.798302
    outer loop
      vertex -7.71171 -4.63998 0
      vertex -6.68349 -4.02132 -0.9
      vertex -8.52888 -2.87371 0
    endloop
  endfacet
  facet normal -0.598727 -0.0651159 0.798302
    outer loop
      vertex 9 0 0
      vertex 8.81874 1.66667 0
      vertex 7.62597 1.66667 -0.894577
    endloop
  endfacet
  facet normal -0.570731 0.192301 0.798302
    outer loop
      vertex 8.16818 -3.779 0
      vertex 8.78958 -1.93473 0
      vertex 7.61764 -1.67677 -0.9
    endloop
  endfacet
  facet normal -0.570727 0.192301 0.798305
    outer loop
      vertex 7.55495 -1.93978 -0.881464
      vertex 7.61764 -1.67677 -0.9
      vertex 7.5705 -1.81668 -0.9
    endloop
  endfacet
  facet normal -0.570731 0.192301 0.798302
    outer loop
      vertex 7.61764 -1.67677 -0.9
      vertex 7.55495 -1.93978 -0.881464
      vertex 8.16818 -3.779 0
    endloop
  endfacet
  facet normal -0.570731 0.192301 0.798302
    outer loop
      vertex 7.38093 -2.3793 -0.9
      vertex 8.16818 -3.779 0
      vertex 7.55495 -1.93978 -0.881464
    endloop
  endfacet
  facet normal -0.570731 0.192301 0.798302
    outer loop
      vertex 8.16818 -3.779 0
      vertex 7.38093 -2.3793 -0.9
      vertex 7.07909 -3.27513 -0.9
    endloop
  endfacet
  facet normal -0.516048 0.310496 0.798302
    outer loop
      vertex 7.16484 -5.44657 0
      vertex 8.16818 -3.779 0
      vertex 6.20953 -4.72036 -0.9
    endloop
  endfacet
  facet normal -0.437236 0.414172 0.798302
    outer loop
      vertex 5.89295 -5.05456 -0.9
      vertex 7.16484 -5.44657 0
      vertex 6.20953 -4.72036 -0.9
    endloop
  endfacet
  facet normal -0.437236 0.414172 0.798302
    outer loop
      vertex 5.68596 -5.33947 -0.86556
      vertex 7.16484 -5.44657 0
      vertex 5.89295 -5.05456 -0.9
    endloop
  endfacet
  facet normal -0.437236 0.414172 0.798302
    outer loop
      vertex 5.39534 -5.57989 -0.9
      vertex 7.16484 -5.44657 0
      vertex 5.68596 -5.33947 -0.86556
    endloop
  endfacet
  facet normal -0.437236 0.414172 0.798302
    outer loop
      vertex 7.16484 -5.44657 0
      vertex 5.39534 -5.57989 -0.9
      vertex 5.04961 -5.94486 -0.9
    endloop
  endfacet
  facet normal -0.337979 0.498482 0.798302
    outer loop
      vertex 4.21568 -7.95161 0
      vertex 5.82648 -6.85946 0
      vertex 3.65359 -6.89139 -0.9
    endloop
  endfacet
  facet normal -0.0974343 0.594323 0.798302
    outer loop
      vertex 2.40775 -8.67195 0
      vertex 2.08672 -7.51569 -0.9
      vertex 0.487249 -8.9868 0
    endloop
  endfacet
  facet normal 0.389893 0.459017 0.798302
    outer loop
      vertex -5.05068 -7.4492 0
      vertex -5.66276 -5.36406 -0.9
      vertex -6.53396 -6.18929 0
    endloop
  endfacet
  facet normal 0.588177 -0.129467 0.798302
    outer loop
      vertex -8.94724 0.973071 0
      vertex -8.06838 1.66667 -0.535042
      vertex -8.79457 1.66667 0
    endloop
  endfacet
  facet normal 0.588176 -0.129467 0.798302
    outer loop
      vertex -8.06838 1.66667 -0.535042
      vertex -8.94724 0.973071 0
      vertex -7.75428 0.843328 -0.9
    endloop
  endfacet
  facet normal 0.602257 0 0.798302
    outer loop
      vertex -8.94724 0.973071 0
      vertex -7.75428 -0.843328 -0.9
      vertex -7.75428 0.843328 -0.9
    endloop
  endfacet
  facet normal 0.602257 0 0.798302
    outer loop
      vertex -7.75428 -0.843328 -0.9
      vertex -8.94724 0.973071 0
      vertex -8.94724 -0.973071 0
    endloop
  endfacet
  facet normal -0.598726 0.0651154 0.798302
    outer loop
      vertex 9 0 0
      vertex 7.8 0 -0.9
      vertex 7.61764 -1.67677 -0.9
    endloop
  endfacet
  facet normal -0.516048 0.310496 0.798302
    outer loop
      vertex 6.92456 -3.53197 -0.9
      vertex 8.16818 -3.779 0
      vertex 7.07909 -3.27513 -0.9
    endloop
  endfacet
  facet normal -0.516048 0.310496 0.798302
    outer loop
      vertex 6.83519 -3.75768 -0.869979
      vertex 8.16818 -3.779 0
      vertex 6.92456 -3.53197 -0.9
    endloop
  endfacet
  facet normal -0.516048 0.310496 0.798302
    outer loop
      vertex 6.56496 -4.12961 -0.9
      vertex 8.16818 -3.779 0
      vertex 6.83519 -3.75768 -0.869979
    endloop
  endfacet
  facet normal -0.516048 0.310496 0.798302
    outer loop
      vertex 8.16818 -3.779 0
      vertex 6.56496 -4.12961 -0.9
      vertex 6.20953 -4.72036 -0.9
    endloop
  endfacet
  facet normal -0.222918 0.559483 0.798302
    outer loop
      vertex 4.21568 -7.95161 0
      vertex 3.65359 -6.89139 -0.9
      vertex 2.40775 -8.67195 0
    endloop
  endfacet
  facet normal -0.222919 0.559483 0.798302
    outer loop
      vertex 2.40775 -8.67195 0
      vertex 2.84691 -7.2128 -0.9
      vertex 2.41033 -7.41824 -0.877931
    endloop
  endfacet
  facet normal -0.222918 0.559483 0.798302
    outer loop
      vertex 2.84691 -7.2128 -0.9
      vertex 2.40775 -8.67195 0
      vertex 3.65359 -6.89139 -0.9
    endloop
  endfacet
  facet normal -0.222919 0.559483 0.798302
    outer loop
      vertex 2.25871 -7.44717 -0.9
      vertex 2.40775 -8.67195 0
      vertex 2.41033 -7.41824 -0.877931
    endloop
  endfacet
  facet normal -0.222918 0.559483 0.798302
    outer loop
      vertex 2.40775 -8.67195 0
      vertex 2.25871 -7.44717 -0.9
      vertex 2.08672 -7.51569 -0.9
    endloop
  endfacet
  facet normal 0 -0 1
    outer loop
      vertex 7.61764 -1.67677 -0.9
      vertex 7.8 0 -0.9
      vertex 7.5705 -1.81668 -0.9
    endloop
  endfacet
  facet normal 0 -0 1
    outer loop
      vertex 6.20953 -4.72036 -0.9
      vertex 6.56496 -4.12961 -0.9
      vertex 5.89295 -5.05456 -0.9
    endloop
  endfacet
  facet normal 0 -0 1
    outer loop
      vertex 3.65359 -6.89139 -0.9
      vertex 3.93406 -6.70123 -0.9
      vertex 2.84691 -7.2128 -0.9
    endloop
  endfacet
  facet normal -0 0 1
    outer loop
      vertex -7.75428 0.843328 -0.9
      vertex -7.73849 -0.915023 -0.9
      vertex -7.73849 0.915023 -0.9
    endloop
  endfacet
  facet normal 0 0 1
    outer loop
      vertex -7.73849 -0.915023 -0.9
      vertex -7.75428 0.843328 -0.9
      vertex -7.75428 -0.843328 -0.9
    endloop
  endfacet
  facet normal 0 0 1
    outer loop
      vertex 7.8 0 -0.9
      vertex 7.61874 1.66667 -0.9
      vertex 7.58945 1.66667 -0.9
    endloop
  endfacet
  facet normal 0 -0 1
    outer loop
      vertex 7.07909 -3.27513 -0.9
      vertex 7.38093 -2.3793 -0.9
      vertex 6.92456 -3.53197 -0.9
    endloop
  endfacet
  facet normal 0 -0 1
    outer loop
      vertex 2.08672 -7.51569 -0.9
      vertex 2.25871 -7.44717 -0.9
      vertex 0.754918 -7.73403 -0.9
    endloop
  endfacet
  facet normal 0 -0 1
    outer loop
      vertex 5.04961 -5.94486 -0.9
      vertex 5.39534 -5.57989 -0.9
      vertex 4.52053 -6.30359 -0.9
    endloop
  endfacet
  facet normal -0 -0 1
    outer loop
      vertex -5.66276 -5.36406 -0.9
      vertex -5.2463 -5.7178 -0.9
      vertex -6.02089 -4.89295 -0.9
    endloop
  endfacet
  facet normal -0 -0 1
    outer loop
      vertex -7.39169 -2.49055 -0.9
      vertex -7.29808 -2.69289 -0.9
      vertex -7.64197 -1.35353 -0.9
    endloop
  endfacet
  facet normal -0 -0 1
    outer loop
      vertex -6.68349 -4.02132 -0.9
      vertex -6.45438 -4.3227 -0.9
      vertex -7.02032 -3.29326 -0.9
    endloop
  endfacet
  facet normal -0 -0 1
    outer loop
      vertex -2.88708 -7.24602 -0.9
      vertex -1.88537 -7.52414 -0.9
      vertex -3.11779 -7.1237 -0.9
    endloop
  endfacet
  facet normal -0 -0 1
    outer loop
      vertex -4.37726 -6.45597 -0.9
      vertex -3.72054 -6.80414 -0.9
      vertex -4.69662 -6.1847 -0.9
    endloop
  endfacet
  facet normal 0 0 1
    outer loop
      vertex 0.458419 -7.78264 -0.9
      vertex -1.2619 -7.69725 -0.9
      vertex 0.422283 -7.78856 -0.9
    endloop
  endfacet
  facet normal -0 -0 1
    outer loop
      vertex -1.2619 -7.69725 -0.9
      vertex 0.458419 -7.78264 -0.9
      vertex -1.36828 -7.66771 -0.9
    endloop
  endfacet
  facet normal 0 0 1
    outer loop
      vertex -7.56157 1.66667 -0.9
      vertex -7.57304 1.66667 -0.9
      vertex -7.64197 1.35353 -0.9
    endloop
  endfacet
  facet normal 0.282102 0.532101 0.798302
    outer loop
      vertex -3.33124 -8.36079 0
      vertex -2.88708 -7.24602 -0.9
      vertex -5.05068 -7.4492 0
    endloop
  endfacet
  facet normal 0.588176 -0.129467 0.798302
    outer loop
      vertex -8.06838 1.66667 -0.535042
      vertex -7.64197 1.35353 -0.9
      vertex -7.57304 1.66667 -0.9
    endloop
  endfacet
  facet normal 0.588176 -0.129467 0.798303
    outer loop
      vertex -7.73849 0.977599 -0.889851
      vertex -7.75428 0.843328 -0.9
      vertex -7.73849 0.915023 -0.9
    endloop
  endfacet
  facet normal 0.588176 -0.129467 0.798302
    outer loop
      vertex -7.73849 0.977599 -0.889851
      vertex -8.06838 1.66667 -0.535042
      vertex -7.75428 0.843328 -0.9
    endloop
  endfacet
  facet normal 0.588176 -0.129467 0.798302
    outer loop
      vertex -7.64197 1.35353 -0.9
      vertex -8.06838 1.66667 -0.535042
      vertex -7.73849 0.977599 -0.889851
    endloop
  endfacet
  facet normal -0.337979 0.498482 0.798302
    outer loop
      vertex 4.52053 -6.30359 -0.9
      vertex 5.82648 -6.85946 0
      vertex 5.04961 -5.94486 -0.9
    endloop
  endfacet
  facet normal -0.337979 0.498481 0.798302
    outer loop
      vertex 4.17945 -6.58576 -0.868212
      vertex 5.82648 -6.85946 0
      vertex 4.52053 -6.30359 -0.9
    endloop
  endfacet
  facet normal -0.337979 0.498481 0.798302
    outer loop
      vertex 3.93406 -6.70123 -0.9
      vertex 5.82648 -6.85946 0
      vertex 4.17945 -6.58576 -0.868212
    endloop
  endfacet
  facet normal -0.337979 0.498482 0.798302
    outer loop
      vertex 5.82648 -6.85946 0
      vertex 3.93406 -6.70123 -0.9
      vertex 3.65359 -6.89139 -0.9
    endloop
  endfacet
  facet normal 0.389893 0.459017 0.798302
    outer loop
      vertex -5.05068 -7.4492 0
      vertex -4.69662 -6.1847 -0.9
      vertex -4.97191 -6.01 -0.866002
    endloop
  endfacet
  facet normal 0.389892 0.459018 0.798302
    outer loop
      vertex -4.69662 -6.1847 -0.9
      vertex -5.05068 -7.4492 0
      vertex -4.37726 -6.45597 -0.9
    endloop
  endfacet
  facet normal 0.389892 0.459018 0.798303
    outer loop
      vertex -5.2463 -5.7178 -0.9
      vertex -5.05068 -7.4492 0
      vertex -4.97191 -6.01 -0.866002
    endloop
  endfacet
  facet normal 0.389893 0.459017 0.798302
    outer loop
      vertex -5.05068 -7.4492 0
      vertex -5.2463 -5.7178 -0.9
      vertex -5.66276 -5.36406 -0.9
    endloop
  endfacet
  facet normal 0.479453 0.36447 0.798302
    outer loop
      vertex -7.71171 -4.63998 0
      vertex -6.02089 -4.89295 -0.9
      vertex -6.31033 -4.58472 -0.866885
    endloop
  endfacet
  facet normal 0.479453 0.36447 0.798302
    outer loop
      vertex -7.71171 -4.63998 0
      vertex -6.45438 -4.3227 -0.9
      vertex -6.68349 -4.02132 -0.9
    endloop
  endfacet
  facet normal 0.479453 0.36447 0.798303
    outer loop
      vertex -6.02089 -4.89295 -0.9
      vertex -7.71171 -4.63998 0
      vertex -5.66276 -5.36406 -0.9
    endloop
  endfacet
  facet normal 0.479453 0.36447 0.798302
    outer loop
      vertex -6.45438 -4.3227 -0.9
      vertex -7.71171 -4.63998 0
      vertex -6.31033 -4.58472 -0.866885
    endloop
  endfacet
  facet normal 0.479453 0.36447 0.798302
    outer loop
      vertex -6.53396 -6.18929 0
      vertex -5.66276 -5.36406 -0.9
      vertex -7.71171 -4.63998 0
    endloop
  endfacet
  facet normal 0.546593 0.252881 0.798302
    outer loop
      vertex -8.52888 -2.87371 0
      vertex -7.02032 -3.29326 -0.9
      vertex -7.25226 -2.87137 -0.874838
    endloop
  endfacet
  facet normal 0.546594 0.252881 0.798302
    outer loop
      vertex -8.52888 -2.87371 0
      vertex -7.29808 -2.69289 -0.9
      vertex -7.39169 -2.49055 -0.9
    endloop
  endfacet
  facet normal 0.546593 0.252881 0.798302
    outer loop
      vertex -7.02032 -3.29326 -0.9
      vertex -8.52888 -2.87371 0
      vertex -6.68349 -4.02132 -0.9
    endloop
  endfacet
  facet normal 0.546593 0.252881 0.798302
    outer loop
      vertex -7.29808 -2.69289 -0.9
      vertex -8.52888 -2.87371 0
      vertex -7.25226 -2.87137 -0.874838
    endloop
  endfacet
  facet normal 0.588176 0.129467 0.798303
    outer loop
      vertex -7.73849 -0.915023 -0.9
      vertex -7.75428 -0.843328 -0.9
      vertex -7.73849 -0.977599 -0.889851
    endloop
  endfacet
  facet normal 0.588176 0.129467 0.798302
    outer loop
      vertex -8.52888 -2.87371 0
      vertex -7.64197 -1.35353 -0.9
      vertex -7.73849 -0.977599 -0.889851
    endloop
  endfacet
  facet normal 0.588176 0.129467 0.798302
    outer loop
      vertex -7.64197 -1.35353 -0.9
      vertex -8.52888 -2.87371 0
      vertex -7.39169 -2.49055 -0.9
    endloop
  endfacet
  facet normal 0.588176 0.129467 0.798302
    outer loop
      vertex -8.52888 -2.87371 0
      vertex -7.73849 -0.977599 -0.889851
      vertex -7.75428 -0.843328 -0.9
    endloop
  endfacet
  facet normal 0.282104 0.532105 0.798299
    outer loop
      vertex -3.32108 -7.05765 -0.872188
      vertex -2.88708 -7.24602 -0.9
      vertex -3.11779 -7.1237 -0.9
    endloop
  endfacet
  facet normal 0.282102 0.532101 0.798302
    outer loop
      vertex -5.05068 -7.4492 0
      vertex -3.72054 -6.80414 -0.9
      vertex -4.37726 -6.45597 -0.9
    endloop
  endfacet
  facet normal 0.282102 0.532101 0.798302
    outer loop
      vertex -3.32108 -7.05765 -0.872188
      vertex -5.05068 -7.4492 0
      vertex -2.88708 -7.24602 -0.9
    endloop
  endfacet
  facet normal 0.282102 0.532101 0.798302
    outer loop
      vertex -3.72054 -6.80414 -0.9
      vertex -5.05068 -7.4492 0
      vertex -3.32108 -7.05765 -0.872188
    endloop
  endfacet
  facet normal 0.161121 0.580305 0.798302
    outer loop
      vertex -1.45604 -8.88144 0
      vertex -2.88708 -7.24602 -0.9
      vertex -3.33124 -8.36079 0
    endloop
  endfacet
  facet normal 0.0326055 0.601374 0.798302
    outer loop
      vertex 0.487249 -8.9868 0
      vertex -1.2619 -7.69725 -0.9
      vertex -1.45604 -8.88144 0
    endloop
  endfacet
  facet normal 0.16112 0.580301 0.798305
    outer loop
      vertex -1.46157 -7.66184 -0.885437
      vertex -1.2619 -7.69725 -0.9
      vertex -1.36828 -7.66771 -0.9
    endloop
  endfacet
  facet normal 0.161121 0.580305 0.798302
    outer loop
      vertex -1.2619 -7.69725 -0.9
      vertex -1.46157 -7.66184 -0.885437
      vertex -1.45604 -8.88144 0
    endloop
  endfacet
  facet normal 0.161121 0.580305 0.798302
    outer loop
      vertex -1.88537 -7.52414 -0.9
      vertex -1.45604 -8.88144 0
      vertex -1.46157 -7.66184 -0.885437
    endloop
  endfacet
  facet normal 0.161121 0.580305 0.798302
    outer loop
      vertex -1.45604 -8.88144 0
      vertex -1.88537 -7.52414 -0.9
      vertex -2.88708 -7.24602 -0.9
    endloop
  endfacet
  facet normal 0.0326054 0.601374 0.798302
    outer loop
      vertex 0.487249 -8.9868 0
      vertex 0.422283 -7.78856 -0.9
      vertex -1.2619 -7.69725 -0.9
    endloop
  endfacet
  facet normal -0.992115 -0.125333 0
    outer loop
      vertex 7.8 0 -2.1
      vertex 7.58945 1.66667 -0.9
      vertex 7.58945 1.66667 -2.1
    endloop
  endfacet
  facet normal -0.992115 -0.125333 0
    outer loop
      vertex 7.58945 1.66667 -0.9
      vertex 7.8 0 -2.1
      vertex 7.8 0 -0.9
    endloop
  endfacet
  facet normal -0.992115 -0.125333 0
    outer loop
      vertex 7.8 0 0.9
      vertex 7.58945 1.66667 2.1
      vertex 7.58945 1.66667 0.9
    endloop
  endfacet
  facet normal -0.992115 -0.125333 0
    outer loop
      vertex 7.58945 1.66667 2.1
      vertex 7.8 0 0.9
      vertex 7.8 0 2.1
    endloop
  endfacet
  facet normal 1 -0 0
    outer loop
      vertex -7.73849 0.915023 -0.9
      vertex -7.73849 0.977599 -2.1
      vertex -7.73849 0.977599 -0.889851
    endloop
  endfacet
  facet normal 1 -0 0
    outer loop
      vertex -7.73849 -0.915023 -0.9
      vertex -7.73849 0.977599 -2.1
      vertex -7.73849 0.915023 -0.9
    endloop
  endfacet
  facet normal 1 0 0
    outer loop
      vertex -7.73849 -0.977599 -2.1
      vertex -7.73849 -0.915023 -0.9
      vertex -7.73849 -0.977599 -0.889851
    endloop
  endfacet
  facet normal 1 0 0
    outer loop
      vertex -7.73849 -0.915023 -0.9
      vertex -7.73849 -0.977599 -2.1
      vertex -7.73849 0.977599 -2.1
    endloop
  endfacet
  facet normal 1 0 0
    outer loop
      vertex -7.73849 0.977599 2.1
      vertex -7.73849 0.915023 0.9
      vertex -7.73849 0.977599 0.889851
    endloop
  endfacet
  facet normal 1 0 0
    outer loop
      vertex -7.73849 0.977599 2.1
      vertex -7.73849 -0.915023 0.9
      vertex -7.73849 0.915023 0.9
    endloop
  endfacet
  facet normal 1 -0 0
    outer loop
      vertex -7.73849 -0.977599 2.1
      vertex -7.73849 -0.915023 0.9
      vertex -7.73849 0.977599 2.1
    endloop
  endfacet
  facet normal 1 0 0
    outer loop
      vertex -7.73849 -0.915023 0.9
      vertex -7.73849 -0.977599 2.1
      vertex -7.73849 -0.977599 0.889851
    endloop
  endfacet
  facet normal -0.187381 0.982287 1.87881e-07
    outer loop
      vertex 2.25871 -7.44717 -0.9
      vertex 2.41033 -7.41824 -2.1
      vertex 0.754918 -7.73403 -0.9
    endloop
  endfacet
  facet normal -0.187383 0.982287 0
    outer loop
      vertex 2.41033 -7.41824 -2.1
      vertex 2.25871 -7.44717 -0.9
      vertex 2.41033 -7.41824 -0.877931
    endloop
  endfacet
  facet normal -0.187381 0.982287 8.43824e-08
    outer loop
      vertex 0.489765 -7.78461 -2.1
      vertex 0.754918 -7.73403 -0.9
      vertex 2.41033 -7.41824 -2.1
    endloop
  endfacet
  facet normal -0.187381 0.982287 0
    outer loop
      vertex 0.754918 -7.73403 -0.9
      vertex 0.489765 -7.78461 -2.1
      vertex 0.489765 -7.78461 -0.894706
    endloop
  endfacet
  facet normal -0.187381 0.982287 -1.87881e-07
    outer loop
      vertex 0.754918 -7.73403 0.9
      vertex 2.41033 -7.41824 2.1
      vertex 2.25871 -7.44717 0.9
    endloop
  endfacet
  facet normal -0.187383 0.982287 0
    outer loop
      vertex 2.25871 -7.44717 0.9
      vertex 2.41033 -7.41824 2.1
      vertex 2.41033 -7.41824 0.877931
    endloop
  endfacet
  facet normal -0.187381 0.982287 -8.43824e-08
    outer loop
      vertex 2.41033 -7.41824 2.1
      vertex 0.754918 -7.73403 0.9
      vertex 0.489765 -7.78461 2.1
    endloop
  endfacet
  facet normal -0.187381 0.982287 0
    outer loop
      vertex 0.489765 -7.78461 2.1
      vertex 0.754918 -7.73403 0.9
      vertex 0.489765 -7.78461 0.894706
    endloop
  endfacet
  facet normal 0 0 -1
    outer loop
      vertex 9.78148 -2.07912 -2.1
      vertex 7.55495 -1.93978 -2.1
      vertex 7.8 0 -2.1
    endloop
  endfacet
  facet normal -0 0 -1
    outer loop
      vertex 9.78148 -2.07912 -2.1
      vertex 6.83519 -3.75768 -2.1
      vertex 7.55495 -1.93978 -2.1
    endloop
  endfacet
  facet normal 0 0 -1
    outer loop
      vertex 9.78148 -2.07912 -2.1
      vertex 5.68596 -5.33947 -2.1
      vertex 6.83519 -3.75768 -2.1
    endloop
  endfacet
  facet normal 0 0 -1
    outer loop
      vertex 2.1 -28 -2.1
      vertex 5.68596 -5.33947 -2.1
      vertex 9.78148 -2.07912 -2.1
    endloop
  endfacet
  facet normal 0 0 -1
    outer loop
      vertex 5.68596 -5.33947 -2.1
      vertex 2.1 -28 -2.1
      vertex 4.17945 -6.58576 -2.1
    endloop
  endfacet
  facet normal 0 0 -1
    outer loop
      vertex 2.1 -28 -2.1
      vertex 2.41033 -7.41824 -2.1
      vertex 4.17945 -6.58576 -2.1
    endloop
  endfacet
  facet normal 0 0 -1
    outer loop
      vertex 2.1 -28 -2.1
      vertex 0.489765 -7.78461 -2.1
      vertex 2.41033 -7.41824 -2.1
    endloop
  endfacet
  facet normal 0 0 -1
    outer loop
      vertex -2.1 -28 -2.1
      vertex 0.489765 -7.78461 -2.1
      vertex 2.1 -28 -2.1
    endloop
  endfacet
  facet normal -0 0 -1
    outer loop
      vertex 0.489765 -7.78461 -2.1
      vertex -2.1 -28 -2.1
      vertex -1.46157 -7.66184 -2.1
    endloop
  endfacet
  facet normal 0 0 -1
    outer loop
      vertex -2.1 -28 -2.1
      vertex -3.32108 -7.05765 -2.1
      vertex -1.46157 -7.66184 -2.1
    endloop
  endfacet
  facet normal 0 0 -1
    outer loop
      vertex -2.1 -28 -2.1
      vertex -4.97191 -6.01 -2.1
      vertex -3.32108 -7.05765 -2.1
    endloop
  endfacet
  facet normal 0 0 -1
    outer loop
      vertex -9.78148 -2.07912 -2.1
      vertex -4.97191 -6.01 -2.1
      vertex -2.1 -28 -2.1
    endloop
  endfacet
  facet normal 0 0 -1
    outer loop
      vertex -4.97191 -6.01 -2.1
      vertex -9.78148 -2.07912 -2.1
      vertex -6.31033 -4.58472 -2.1
    endloop
  endfacet
  facet normal 0 0 -1
    outer loop
      vertex -6.31033 -4.58472 -2.1
      vertex -9.78148 -2.07912 -2.1
      vertex -7.25226 -2.87137 -2.1
    endloop
  endfacet
  facet normal 0 0 -1
    outer loop
      vertex -10 0 -2.1
      vertex -7.73849 -0.977599 -2.1
      vertex -9.78148 -2.07912 -2.1
    endloop
  endfacet
  facet normal 0 0 -1
    outer loop
      vertex -7.25226 -2.87137 -2.1
      vertex -9.78148 -2.07912 -2.1
      vertex -7.73849 -0.977599 -2.1
    endloop
  endfacet
  facet normal 0 0 -1
    outer loop
      vertex 7.8 0 -2.1
      vertex 10 0 -2.1
      vertex 9.78148 -2.07912 -2.1
    endloop
  endfacet
  facet normal 0 0 -1
    outer loop
      vertex 10 0 -2.1
      vertex 7.8 0 -2.1
      vertex 9.82483 1.66667 -2.1
    endloop
  endfacet
  facet normal -0 0 -1
    outer loop
      vertex 9.82483 1.66667 -2.1
      vertex 7.8 0 -2.1
      vertex 7.58945 1.66667 -2.1
    endloop
  endfacet
  facet normal 0 0 -1
    outer loop
      vertex -7.73849 -0.977599 -2.1
      vertex -10 0 -2.1
      vertex -7.73849 0.977599 -2.1
    endloop
  endfacet
  facet normal 0 -0 -1
    outer loop
      vertex -9.82483 1.66667 -2.1
      vertex -7.73849 0.977599 -2.1
      vertex -10 0 -2.1
    endloop
  endfacet
  facet normal 0 0 -1
    outer loop
      vertex -7.73849 0.977599 -2.1
      vertex -9.82483 1.66667 -2.1
      vertex -7.56157 1.66667 -2.1
    endloop
  endfacet
  facet normal 0.968583 -0.24869 0
    outer loop
      vertex -7.64197 1.35353 -0.9
      vertex -7.56157 1.66667 -2.1
      vertex -7.56157 1.66667 -0.9
    endloop
  endfacet
  facet normal 0.968583 -0.24869 0
    outer loop
      vertex -7.73849 0.977599 -2.1
      vertex -7.64197 1.35353 -0.9
      vertex -7.73849 0.977599 -0.889851
    endloop
  endfacet
  facet normal 0.968583 -0.24869 6.33348e-08
    outer loop
      vertex -7.64197 1.35353 -0.9
      vertex -7.73849 0.977599 -2.1
      vertex -7.56157 1.66667 -2.1
    endloop
  endfacet
  facet normal 0.968583 -0.24869 0
    outer loop
      vertex -7.56157 1.66667 2.1
      vertex -7.64197 1.35353 0.9
      vertex -7.56157 1.66667 0.9
    endloop
  endfacet
  facet normal 0.968583 -0.24869 -6.33348e-08
    outer loop
      vertex -7.73849 0.977599 2.1
      vertex -7.64197 1.35353 0.9
      vertex -7.56157 1.66667 2.1
    endloop
  endfacet
  facet normal 0.968583 -0.24869 0
    outer loop
      vertex -7.64197 1.35353 0.9
      vertex -7.73849 0.977599 2.1
      vertex -7.73849 0.977599 0.889851
    endloop
  endfacet
  facet normal -0 0 1
    outer loop
      vertex -10 0 2.1
      vertex -7.73849 -0.977599 2.1
      vertex -7.73849 0.977599 2.1
    endloop
  endfacet
  facet normal -0 0 1
    outer loop
      vertex -9.82483 1.66667 2.1
      vertex -7.73849 0.977599 2.1
      vertex -7.56157 1.66667 2.1
    endloop
  endfacet
  facet normal 0 0 1
    outer loop
      vertex -7.73849 0.977599 2.1
      vertex -9.82483 1.66667 2.1
      vertex -10 0 2.1
    endloop
  endfacet
  facet normal 0 0 1
    outer loop
      vertex -7.73849 -0.977599 2.1
      vertex -10 0 2.1
      vertex -9.78148 -2.07912 2.1
    endloop
  endfacet
  facet normal 0 0 1
    outer loop
      vertex 7.8 0 2.1
      vertex 10 0 2.1
      vertex 9.82483 1.66667 2.1
    endloop
  endfacet
  facet normal 0 0 1
    outer loop
      vertex 10 0 2.1
      vertex 7.8 0 2.1
      vertex 9.78148 -2.07912 2.1
    endloop
  endfacet
  facet normal 0 -0 1
    outer loop
      vertex 7.8 0 2.1
      vertex 9.82483 1.66667 2.1
      vertex 7.58945 1.66667 2.1
    endloop
  endfacet
  facet normal -0 0 1
    outer loop
      vertex 7.55495 -1.93978 2.1
      vertex 9.78148 -2.07912 2.1
      vertex 7.8 0 2.1
    endloop
  endfacet
  facet normal 0 0 1
    outer loop
      vertex 6.83519 -3.75768 2.1
      vertex 9.78148 -2.07912 2.1
      vertex 7.55495 -1.93978 2.1
    endloop
  endfacet
  facet normal 0 0 1
    outer loop
      vertex 5.68596 -5.33947 2.1
      vertex 9.78148 -2.07912 2.1
      vertex 6.83519 -3.75768 2.1
    endloop
  endfacet
  facet normal 0 0 1
    outer loop
      vertex 2.1 -28 2.1
      vertex 5.68596 -5.33947 2.1
      vertex 4.17945 -6.58576 2.1
    endloop
  endfacet
  facet normal -0 0 1
    outer loop
      vertex 5.68596 -5.33947 2.1
      vertex 2.1 -28 2.1
      vertex 9.78148 -2.07912 2.1
    endloop
  endfacet
  facet normal -0 0 1
    outer loop
      vertex 2.41033 -7.41824 2.1
      vertex 2.1 -28 2.1
      vertex 4.17945 -6.58576 2.1
    endloop
  endfacet
  facet normal -0 0 1
    outer loop
      vertex 0.489765 -7.78461 2.1
      vertex 2.1 -28 2.1
      vertex 2.41033 -7.41824 2.1
    endloop
  endfacet
  facet normal 0 0 1
    outer loop
      vertex -2.1 -28 2.1
      vertex 0.489765 -7.78461 2.1
      vertex -1.46157 -7.66184 2.1
    endloop
  endfacet
  facet normal 0 0 1
    outer loop
      vertex 0.489765 -7.78461 2.1
      vertex -2.1 -28 2.1
      vertex 2.1 -28 2.1
    endloop
  endfacet
  facet normal 0 0 1
    outer loop
      vertex -3.32108 -7.05765 2.1
      vertex -2.1 -28 2.1
      vertex -1.46157 -7.66184 2.1
    endloop
  endfacet
  facet normal 0 0 1
    outer loop
      vertex -4.97191 -6.01 2.1
      vertex -2.1 -28 2.1
      vertex -3.32108 -7.05765 2.1
    endloop
  endfacet
  facet normal 0 0 1
    outer loop
      vertex -9.78148 -2.07912 2.1
      vertex -4.97191 -6.01 2.1
      vertex -6.31033 -4.58472 2.1
    endloop
  endfacet
  facet normal 0 0 1
    outer loop
      vertex -9.78148 -2.07912 2.1
      vertex -6.31033 -4.58472 2.1
      vertex -7.25226 -2.87137 2.1
    endloop
  endfacet
  facet normal -0 0 1
    outer loop
      vertex -9.78148 -2.07912 2.1
      vertex -7.25226 -2.87137 2.1
      vertex -7.73849 -0.977599 2.1
    endloop
  endfacet
  facet normal 0 0 1
    outer loop
      vertex -4.97191 -6.01 2.1
      vertex -9.78148 -2.07912 2.1
      vertex -2.1 -28 2.1
    endloop
  endfacet
  facet normal 0.968583 0.24869 0
    outer loop
      vertex -7.73849 -0.977599 2.1
      vertex -7.64197 -1.35353 0.9
      vertex -7.73849 -0.977599 0.889851
    endloop
  endfacet
  facet normal 0.968583 0.24869 2.55272e-08
    outer loop
      vertex -7.25226 -2.87137 2.1
      vertex -7.64197 -1.35353 0.9
      vertex -7.73849 -0.977599 2.1
    endloop
  endfacet
  facet normal 0.968583 0.24869 -1.21124e-07
    outer loop
      vertex -7.64197 -1.35353 0.9
      vertex -7.25226 -2.87137 2.1
      vertex -7.29808 -2.69289 0.9
    endloop
  endfacet
  facet normal 0.968583 0.24869 0
    outer loop
      vertex -7.29808 -2.69289 0.9
      vertex -7.25226 -2.87137 2.1
      vertex -7.25226 -2.87137 0.874838
    endloop
  endfacet
  facet normal 0.968583 0.24869 0
    outer loop
      vertex -7.64197 -1.35353 -0.9
      vertex -7.73849 -0.977599 -2.1
      vertex -7.73849 -0.977599 -0.889851
    endloop
  endfacet
  facet normal 0.968583 0.24869 1.21124e-07
    outer loop
      vertex -7.25226 -2.87137 -2.1
      vertex -7.64197 -1.35353 -0.9
      vertex -7.29808 -2.69289 -0.9
    endloop
  endfacet
  facet normal 0.968583 0.24869 -0
    outer loop
      vertex -7.25226 -2.87137 -2.1
      vertex -7.29808 -2.69289 -0.9
      vertex -7.25226 -2.87137 -0.874838
    endloop
  endfacet
  facet normal 0.968583 0.24869 -2.55272e-08
    outer loop
      vertex -7.64197 -1.35353 -0.9
      vertex -7.25226 -2.87137 -2.1
      vertex -7.73849 -0.977599 -2.1
    endloop
  endfacet
  facet normal -0.809017 0.587785 0
    outer loop
      vertex 6.83519 -3.75768 -2.1
      vertex 6.56496 -4.12961 -0.9
      vertex 6.83519 -3.75768 -0.869979
    endloop
  endfacet
  facet normal -0.809017 0.587785 -1.12274e-07
    outer loop
      vertex 5.68596 -5.33947 -2.1
      vertex 6.56496 -4.12961 -0.9
      vertex 6.83519 -3.75768 -2.1
    endloop
  endfacet
  facet normal -0.809017 0.587785 -2.61916e-08
    outer loop
      vertex 6.56496 -4.12961 -0.9
      vertex 5.68596 -5.33947 -2.1
      vertex 5.89295 -5.05456 -0.9
    endloop
  endfacet
  facet normal -0.809017 0.587785 0
    outer loop
      vertex 5.89295 -5.05456 -0.9
      vertex 5.68596 -5.33947 -2.1
      vertex 5.68596 -5.33947 -0.86556
    endloop
  endfacet
  facet normal -0.809017 0.587785 0
    outer loop
      vertex 6.56496 -4.12961 0.9
      vertex 6.83519 -3.75768 2.1
      vertex 6.83519 -3.75768 0.869979
    endloop
  endfacet
  facet normal -0.809017 0.587785 2.61916e-08
    outer loop
      vertex 5.68596 -5.33947 2.1
      vertex 6.56496 -4.12961 0.9
      vertex 5.89295 -5.05456 0.9
    endloop
  endfacet
  facet normal -0.809017 0.587785 0
    outer loop
      vertex 5.68596 -5.33947 2.1
      vertex 5.89295 -5.05456 0.9
      vertex 5.68596 -5.33947 0.86556
    endloop
  endfacet
  facet normal -0.809017 0.587785 1.12274e-07
    outer loop
      vertex 6.56496 -4.12961 0.9
      vertex 5.68596 -5.33947 2.1
      vertex 6.83519 -3.75768 2.1
    endloop
  endfacet
  facet normal -0.929777 0.368124 0
    outer loop
      vertex 7.55495 -1.93978 -2.1
      vertex 7.38093 -2.3793 -0.9
      vertex 7.55495 -1.93978 -0.881464
    endloop
  endfacet
  facet normal -0.929777 0.368124 6.88667e-08
    outer loop
      vertex 6.83519 -3.75768 -2.1
      vertex 7.38093 -2.3793 -0.9
      vertex 7.55495 -1.93978 -2.1
    endloop
  endfacet
  facet normal -0.929777 0.368124 8.3137e-08
    outer loop
      vertex 7.38093 -2.3793 -0.9
      vertex 6.83519 -3.75768 -2.1
      vertex 6.92456 -3.53197 -0.9
    endloop
  endfacet
  facet normal -0.929776 0.368125 0
    outer loop
      vertex 6.92456 -3.53197 -0.9
      vertex 6.83519 -3.75768 -2.1
      vertex 6.83519 -3.75768 -0.869979
    endloop
  endfacet
  facet normal -0.929777 0.368124 0
    outer loop
      vertex 7.38093 -2.3793 0.9
      vertex 7.55495 -1.93978 2.1
      vertex 7.55495 -1.93978 0.881464
    endloop
  endfacet
  facet normal -0.929777 0.368124 -8.3137e-08
    outer loop
      vertex 6.83519 -3.75768 2.1
      vertex 7.38093 -2.3793 0.9
      vertex 6.92456 -3.53197 0.9
    endloop
  endfacet
  facet normal -0.929776 0.368125 0
    outer loop
      vertex 6.83519 -3.75768 2.1
      vertex 6.92456 -3.53197 0.9
      vertex 6.83519 -3.75768 0.869979
    endloop
  endfacet
  facet normal -0.929777 0.368124 -6.88667e-08
    outer loop
      vertex 7.38093 -2.3793 0.9
      vertex 6.83519 -3.75768 2.1
      vertex 7.55495 -1.93978 2.1
    endloop
  endfacet
  facet normal 0.876307 0.481754 0
    outer loop
      vertex -7.02032 -3.29326 -0.9
      vertex -7.25226 -2.87137 -2.1
      vertex -7.25226 -2.87137 -0.874838
    endloop
  endfacet
  facet normal 0.876307 0.481754 3.84864e-08
    outer loop
      vertex -6.31033 -4.58472 -2.1
      vertex -7.02032 -3.29326 -0.9
      vertex -6.45438 -4.3227 -0.9
    endloop
  endfacet
  facet normal 0.876307 0.481754 -0
    outer loop
      vertex -6.31033 -4.58472 -2.1
      vertex -6.45438 -4.3227 -0.9
      vertex -6.31033 -4.58472 -0.866885
    endloop
  endfacet
  facet normal 0.876307 0.481754 1.49356e-08
    outer loop
      vertex -7.02032 -3.29326 -0.9
      vertex -6.31033 -4.58472 -2.1
      vertex -7.25226 -2.87137 -2.1
    endloop
  endfacet
  facet normal 0.876307 0.481754 0
    outer loop
      vertex -7.25226 -2.87137 2.1
      vertex -7.02032 -3.29326 0.9
      vertex -7.25226 -2.87137 0.874838
    endloop
  endfacet
  facet normal 0.876307 0.481754 -1.49356e-08
    outer loop
      vertex -6.31033 -4.58472 2.1
      vertex -7.02032 -3.29326 0.9
      vertex -7.25226 -2.87137 2.1
    endloop
  endfacet
  facet normal 0.876307 0.481754 -3.84864e-08
    outer loop
      vertex -7.02032 -3.29326 0.9
      vertex -6.31033 -4.58472 2.1
      vertex -6.45438 -4.3227 0.9
    endloop
  endfacet
  facet normal 0.876307 0.481754 0
    outer loop
      vertex -6.45438 -4.3227 0.9
      vertex -6.31033 -4.58472 2.1
      vertex -6.31033 -4.58472 0.866885
    endloop
  endfacet
  facet normal 0.728968 0.684547 0
    outer loop
      vertex -6.02089 -4.89295 -0.9
      vertex -6.31033 -4.58472 -2.1
      vertex -6.31033 -4.58472 -0.866885
    endloop
  endfacet
  facet normal 0.728969 0.684547 4.13973e-07
    outer loop
      vertex -4.97191 -6.01 -2.1
      vertex -6.02089 -4.89295 -0.9
      vertex -5.2463 -5.7178 -0.9
    endloop
  endfacet
  facet normal 0.728968 0.684548 -0
    outer loop
      vertex -4.97191 -6.01 -2.1
      vertex -5.2463 -5.7178 -0.9
      vertex -4.97191 -6.01 -0.866002
    endloop
  endfacet
  facet normal 0.728969 0.684547 -1.98047e-07
    outer loop
      vertex -6.02089 -4.89295 -0.9
      vertex -4.97191 -6.01 -2.1
      vertex -6.31033 -4.58472 -2.1
    endloop
  endfacet
  facet normal 0.728968 0.684547 0
    outer loop
      vertex -6.31033 -4.58472 2.1
      vertex -6.02089 -4.89295 0.9
      vertex -6.31033 -4.58472 0.866885
    endloop
  endfacet
  facet normal 0.728969 0.684547 1.98047e-07
    outer loop
      vertex -4.97191 -6.01 2.1
      vertex -6.02089 -4.89295 0.9
      vertex -6.31033 -4.58472 2.1
    endloop
  endfacet
  facet normal 0.728969 0.684547 -4.13973e-07
    outer loop
      vertex -6.02089 -4.89295 0.9
      vertex -4.97191 -6.01 2.1
      vertex -5.2463 -5.7178 0.9
    endloop
  endfacet
  facet normal 0.728968 0.684548 0
    outer loop
      vertex -5.2463 -5.7178 0.9
      vertex -4.97191 -6.01 2.1
      vertex -4.97191 -6.01 0.866002
    endloop
  endfacet
  facet normal -0.425779 0.904827 5.70082e-08
    outer loop
      vertex 3.93406 -6.70123 -0.9
      vertex 4.17945 -6.58576 -2.1
      vertex 2.84691 -7.2128 -0.9
    endloop
  endfacet
  facet normal -0.42578 0.904827 0
    outer loop
      vertex 4.17945 -6.58576 -2.1
      vertex 3.93406 -6.70123 -0.9
      vertex 4.17945 -6.58576 -0.868212
    endloop
  endfacet
  facet normal -0.425779 0.904827 -1.30353e-07
    outer loop
      vertex 2.41033 -7.41824 -2.1
      vertex 2.84691 -7.2128 -0.9
      vertex 4.17945 -6.58576 -2.1
    endloop
  endfacet
  facet normal -0.42578 0.904827 0
    outer loop
      vertex 2.84691 -7.2128 -0.9
      vertex 2.41033 -7.41824 -2.1
      vertex 2.41033 -7.41824 -0.877931
    endloop
  endfacet
  facet normal -0.425779 0.904827 -5.70082e-08
    outer loop
      vertex 2.84691 -7.2128 0.9
      vertex 4.17945 -6.58576 2.1
      vertex 3.93406 -6.70123 0.9
    endloop
  endfacet
  facet normal -0.42578 0.904827 0
    outer loop
      vertex 3.93406 -6.70123 0.9
      vertex 4.17945 -6.58576 2.1
      vertex 4.17945 -6.58576 0.868212
    endloop
  endfacet
  facet normal -0.425779 0.904827 1.30353e-07
    outer loop
      vertex 4.17945 -6.58576 2.1
      vertex 2.84691 -7.2128 0.9
      vertex 2.41033 -7.41824 2.1
    endloop
  endfacet
  facet normal -0.42578 0.904827 0
    outer loop
      vertex 2.41033 -7.41824 2.1
      vertex 2.84691 -7.2128 0.9
      vertex 2.41033 -7.41824 0.877931
    endloop
  endfacet
  facet normal -0.992115 0.125333 0
    outer loop
      vertex 7.8 0 -2.1
      vertex 7.5705 -1.81668 -0.9
      vertex 7.8 0 -0.9
    endloop
  endfacet
  facet normal -0.992115 0.125333 -1.12923e-07
    outer loop
      vertex 7.55495 -1.93978 -2.1
      vertex 7.5705 -1.81668 -0.9
      vertex 7.8 0 -2.1
    endloop
  endfacet
  facet normal -0.992115 0.125332 0
    outer loop
      vertex 7.5705 -1.81668 -0.9
      vertex 7.55495 -1.93978 -2.1
      vertex 7.55495 -1.93978 -0.881464
    endloop
  endfacet
  facet normal -0.992115 0.125333 0
    outer loop
      vertex 7.5705 -1.81668 0.9
      vertex 7.8 0 2.1
      vertex 7.8 0 0.9
    endloop
  endfacet
  facet normal -0.992115 0.125332 0
    outer loop
      vertex 7.55495 -1.93978 2.1
      vertex 7.5705 -1.81668 0.9
      vertex 7.55495 -1.93978 0.881464
    endloop
  endfacet
  facet normal -0.992115 0.125333 1.12923e-07
    outer loop
      vertex 7.5705 -1.81668 0.9
      vertex 7.55495 -1.93978 2.1
      vertex 7.8 0 2.1
    endloop
  endfacet
  facet normal 0.535827 0.844328 -3.61214e-08
    outer loop
      vertex -4.97191 -6.01 -2.1
      vertex -3.72054 -6.80414 -0.9
      vertex -3.32108 -7.05765 -2.1
    endloop
  endfacet
  facet normal 0.535827 0.844328 -0
    outer loop
      vertex -3.32108 -7.05765 -2.1
      vertex -3.72054 -6.80414 -0.9
      vertex -3.32108 -7.05765 -0.872188
    endloop
  endfacet
  facet normal 0.535827 0.844328 3.46056e-07
    outer loop
      vertex -3.72054 -6.80414 -0.9
      vertex -4.97191 -6.01 -2.1
      vertex -4.69662 -6.1847 -0.9
    endloop
  endfacet
  facet normal 0.535828 0.844327 0
    outer loop
      vertex -4.69662 -6.1847 -0.9
      vertex -4.97191 -6.01 -2.1
      vertex -4.97191 -6.01 -0.866002
    endloop
  endfacet
  facet normal 0.535827 0.844328 3.61214e-08
    outer loop
      vertex -3.32108 -7.05765 2.1
      vertex -3.72054 -6.80414 0.9
      vertex -4.97191 -6.01 2.1
    endloop
  endfacet
  facet normal 0.535827 0.844328 0
    outer loop
      vertex -3.72054 -6.80414 0.9
      vertex -3.32108 -7.05765 2.1
      vertex -3.32108 -7.05765 0.872188
    endloop
  endfacet
  facet normal 0.535827 0.844328 -3.46056e-07
    outer loop
      vertex -4.69662 -6.1847 0.9
      vertex -4.97191 -6.01 2.1
      vertex -3.72054 -6.80414 0.9
    endloop
  endfacet
  facet normal 0.535828 0.844327 0
    outer loop
      vertex -4.97191 -6.01 2.1
      vertex -4.69662 -6.1847 0.9
      vertex -4.97191 -6.01 0.866002
    endloop
  endfacet
  facet normal 0.0627903 0.998027 -5.82665e-08
    outer loop
      vertex 0.458419 -7.78264 -0.9
      vertex 0.489765 -7.78461 -2.1
      vertex -1.36828 -7.66771 -0.9
    endloop
  endfacet
  facet normal 0.0627926 0.998027 -0
    outer loop
      vertex 0.489765 -7.78461 -2.1
      vertex 0.458419 -7.78264 -0.9
      vertex 0.489765 -7.78461 -0.894706
    endloop
  endfacet
  facet normal 0.0627903 0.998027 -8.58442e-08
    outer loop
      vertex -1.46157 -7.66184 -2.1
      vertex -1.36828 -7.66771 -0.9
      vertex 0.489765 -7.78461 -2.1
    endloop
  endfacet
  facet normal 0.0627892 0.998027 0
    outer loop
      vertex -1.36828 -7.66771 -0.9
      vertex -1.46157 -7.66184 -2.1
      vertex -1.46157 -7.66184 -0.885437
    endloop
  endfacet
  facet normal 0.0627903 0.998027 5.82665e-08
    outer loop
      vertex -1.36828 -7.66771 0.9
      vertex 0.489765 -7.78461 2.1
      vertex 0.458419 -7.78264 0.9
    endloop
  endfacet
  facet normal 0.0627926 0.998027 0
    outer loop
      vertex 0.458419 -7.78264 0.9
      vertex 0.489765 -7.78461 2.1
      vertex 0.489765 -7.78461 0.894706
    endloop
  endfacet
  facet normal 0.0627903 0.998027 8.58442e-08
    outer loop
      vertex 0.489765 -7.78461 2.1
      vertex -1.36828 -7.66771 0.9
      vertex -1.46157 -7.66184 2.1
    endloop
  endfacet
  facet normal 0.0627892 0.998027 0
    outer loop
      vertex -1.46157 -7.66184 2.1
      vertex -1.36828 -7.66771 0.9
      vertex -1.46157 -7.66184 0.885437
    endloop
  endfacet
  facet normal 0.309017 0.951056 -6.32554e-08
    outer loop
      vertex -1.46157 -7.66184 2.1
      vertex -1.88537 -7.52414 0.9
      vertex -3.32108 -7.05765 2.1
    endloop
  endfacet
  facet normal 0.309017 0.951057 0
    outer loop
      vertex -1.88537 -7.52414 0.9
      vertex -1.46157 -7.66184 2.1
      vertex -1.46157 -7.66184 0.885437
    endloop
  endfacet
  facet normal 0.309017 0.951057 -2.02939e-07
    outer loop
      vertex -3.11779 -7.1237 0.9
      vertex -3.32108 -7.05765 2.1
      vertex -1.88537 -7.52414 0.9
    endloop
  endfacet
  facet normal 0.309018 0.951056 0
    outer loop
      vertex -3.32108 -7.05765 2.1
      vertex -3.11779 -7.1237 0.9
      vertex -3.32108 -7.05765 0.872188
    endloop
  endfacet
  facet normal 0.309017 0.951056 6.32554e-08
    outer loop
      vertex -3.32108 -7.05765 -2.1
      vertex -1.88537 -7.52414 -0.9
      vertex -1.46157 -7.66184 -2.1
    endloop
  endfacet
  facet normal 0.309017 0.951057 -0
    outer loop
      vertex -1.46157 -7.66184 -2.1
      vertex -1.88537 -7.52414 -0.9
      vertex -1.46157 -7.66184 -0.885437
    endloop
  endfacet
  facet normal 0.309017 0.951057 2.02939e-07
    outer loop
      vertex -1.88537 -7.52414 -0.9
      vertex -3.32108 -7.05765 -2.1
      vertex -3.11779 -7.1237 -0.9
    endloop
  endfacet
  facet normal 0.309018 0.951056 0
    outer loop
      vertex -3.11779 -7.1237 -0.9
      vertex -3.32108 -7.05765 -2.1
      vertex -3.32108 -7.05765 -0.872188
    endloop
  endfacet
  facet normal -0.637424 0.770514 1.14076e-07
    outer loop
      vertex 5.39534 -5.57989 -0.9
      vertex 5.68596 -5.33947 -2.1
      vertex 4.52053 -6.30359 -0.9
    endloop
  endfacet
  facet normal -0.637424 0.770513 0
    outer loop
      vertex 5.68596 -5.33947 -2.1
      vertex 5.39534 -5.57989 -0.9
      vertex 5.68596 -5.33947 -0.86556
    endloop
  endfacet
  facet normal -0.637424 0.770513 -1.00923e-07
    outer loop
      vertex 4.17945 -6.58576 -2.1
      vertex 4.52053 -6.30359 -0.9
      vertex 5.68596 -5.33947 -2.1
    endloop
  endfacet
  facet normal -0.637424 0.770513 0
    outer loop
      vertex 4.52053 -6.30359 -0.9
      vertex 4.17945 -6.58576 -2.1
      vertex 4.17945 -6.58576 -0.868212
    endloop
  endfacet
  facet normal -0.637424 0.770514 -1.14076e-07
    outer loop
      vertex 4.52053 -6.30359 0.9
      vertex 5.68596 -5.33947 2.1
      vertex 5.39534 -5.57989 0.9
    endloop
  endfacet
  facet normal -0.637424 0.770513 0
    outer loop
      vertex 5.39534 -5.57989 0.9
      vertex 5.68596 -5.33947 2.1
      vertex 5.68596 -5.33947 0.86556
    endloop
  endfacet
  facet normal -0.637424 0.770513 1.00923e-07
    outer loop
      vertex 5.68596 -5.33947 2.1
      vertex 4.52053 -6.30359 0.9
      vertex 4.17945 -6.58576 2.1
    endloop
  endfacet
  facet normal -0.637424 0.770513 0
    outer loop
      vertex 4.17945 -6.58576 2.1
      vertex 4.52053 -6.30359 0.9
      vertex 4.17945 -6.58576 0.868212
    endloop
  endfacet
  facet normal 0 1 0
    outer loop
      vertex -7.56157 1.66667 -0.9
      vertex -7.56157 1.66667 -2.1
      vertex -7.57304 1.66667 -0.9
    endloop
  endfacet
  facet normal 0 1 0
    outer loop
      vertex -7.57304 1.66667 0.9
      vertex -7.56157 1.66667 2.1
      vertex -7.56157 1.66667 0.9
    endloop
  endfacet
  facet normal 0 1 0
    outer loop
      vertex -8.06838 1.66667 0.535042
      vertex -7.56157 1.66667 2.1
      vertex -7.57304 1.66667 0.9
    endloop
  endfacet
  facet normal 0 1 0
    outer loop
      vertex -7.56157 1.66667 2.1
      vertex -8.06838 1.66667 0.535042
      vertex -9.82483 1.66667 2.1
    endloop
  endfacet
  facet normal 0 1 -0
    outer loop
      vertex -8.79457 1.66667 0
      vertex -9.82483 1.66667 2.1
      vertex -8.06838 1.66667 0.535042
    endloop
  endfacet
  facet normal 0 1 0
    outer loop
      vertex -7.56157 1.66667 -2.1
      vertex -8.06838 1.66667 -0.535042
      vertex -7.57304 1.66667 -0.9
    endloop
  endfacet
  facet normal 0 1 0
    outer loop
      vertex -9.82483 1.66667 -2.1
      vertex -8.06838 1.66667 -0.535042
      vertex -7.56157 1.66667 -2.1
    endloop
  endfacet
  facet normal 0 1 0
    outer loop
      vertex -8.79457 1.66667 0
      vertex -9.82483 1.66667 -2.1
      vertex -9.82483 1.66667 2.1
    endloop
  endfacet
  facet normal 0 1 0
    outer loop
      vertex -8.06838 1.66667 -0.535042
      vertex -9.82483 1.66667 -2.1
      vertex -8.79457 1.66667 0
    endloop
  endfacet
  facet normal 0 1 -0
    outer loop
      vertex 7.62597 1.66667 0.894577
      vertex 7.58945 1.66667 2.1
      vertex 9.82483 1.66667 2.1
    endloop
  endfacet
  facet normal 0 1 0
    outer loop
      vertex 7.58945 1.66667 2.1
      vertex 7.62597 1.66667 0.894577
      vertex 7.61874 1.66667 0.9
    endloop
  endfacet
  facet normal 0 1 0
    outer loop
      vertex 9.82483 1.66667 2.1
      vertex 8.81874 1.66667 0
      vertex 7.62597 1.66667 0.894577
    endloop
  endfacet
  facet normal 0 1 -0
    outer loop
      vertex 9.82483 1.66667 -2.1
      vertex 8.81874 1.66667 0
      vertex 9.82483 1.66667 2.1
    endloop
  endfacet
  facet normal 0 1 0
    outer loop
      vertex 9.82483 1.66667 -2.1
      vertex 7.62597 1.66667 -0.894577
      vertex 8.81874 1.66667 0
    endloop
  endfacet
  facet normal 0 1 0
    outer loop
      vertex 7.58945 1.66667 -2.1
      vertex 7.62597 1.66667 -0.894577
      vertex 9.82483 1.66667 -2.1
    endloop
  endfacet
  facet normal 0 1 0
    outer loop
      vertex 7.62597 1.66667 -0.894577
      vertex 7.58945 1.66667 -2.1
      vertex 7.61874 1.66667 -0.9
    endloop
  endfacet
  facet normal 0 1 0
    outer loop
      vertex 7.61874 1.66667 -0.9
      vertex 7.58945 1.66667 -2.1
      vertex 7.58945 1.66667 -0.9
    endloop
  endfacet
  facet normal 0 1 0
    outer loop
      vertex 7.58945 1.66667 2.1
      vertex 7.61874 1.66667 0.9
      vertex 7.58945 1.66667 0.9
    endloop
  endfacet
  facet normal 0.994522 0.104529 0
    outer loop
      vertex 10 0 2.1
      vertex 9.82483 1.66667 -2.1
      vertex 9.82483 1.66667 2.1
    endloop
  endfacet
  facet normal 0.994522 0.104529 0
    outer loop
      vertex 9.82483 1.66667 -2.1
      vertex 10 0 2.1
      vertex 10 0 -2.1
    endloop
  endfacet
  facet normal -0.994522 -0.104529 0
    outer loop
      vertex -9.78148 -2.07912 -2.1
      vertex -10 0 2.1
      vertex -10 0 -2.1
    endloop
  endfacet
  facet normal -0.994522 -0.104529 0
    outer loop
      vertex -10 0 2.1
      vertex -9.78148 -2.07912 -2.1
      vertex -9.78148 -2.07912 2.1
    endloop
  endfacet
  facet normal 0.958786 -0.28413 0
    outer loop
      vertex 2.1 -28 2.1
      vertex 9.78148 -2.07912 -2.1
      vertex 9.78148 -2.07912 2.1
    endloop
  endfacet
  facet normal 0.958786 -0.28413 0
    outer loop
      vertex 9.78148 -2.07912 -2.1
      vertex 2.1 -28 2.1
      vertex 2.1 -28 -2.1
    endloop
  endfacet
  facet normal -0.958786 -0.28413 0
    outer loop
      vertex -2.1 -28 -2.1
      vertex -9.78148 -2.07912 2.1
      vertex -9.78148 -2.07912 -2.1
    endloop
  endfacet
  facet normal -0.958786 -0.28413 0
    outer loop
      vertex -9.78148 -2.07912 2.1
      vertex -2.1 -28 -2.1
      vertex -2.1 -28 2.1
    endloop
  endfacet
  facet normal 0 1 0
    outer loop
      vertex 10 -28 5
      vertex 2.1 -28 2.1
      vertex -10 -28 5
    endloop
  endfacet
  facet normal 0 1 0
    outer loop
      vertex 10 -28 5
      vertex 2.1 -28 -2.1
      vertex 2.1 -28 2.1
    endloop
  endfacet
  facet normal 0 1 0
    outer loop
      vertex 2.1 -28 -2.1
      vertex 10 -28 -5
      vertex -2.1 -28 -2.1
    endloop
  endfacet
  facet normal 0 1 -0
    outer loop
      vertex 10 -28 -5
      vertex 2.1 -28 -2.1
      vertex 10 -28 5
    endloop
  endfacet
  facet normal 0 1 -0
    outer loop
      vertex -2.1 -28 2.1
      vertex -10 -28 5
      vertex 2.1 -28 2.1
    endloop
  endfacet
  facet normal 0 1 -0
    outer loop
      vertex -2.1 -28 -2.1
      vertex -10 -28 5
      vertex -2.1 -28 2.1
    endloop
  endfacet
  facet normal 0 1 0
    outer loop
      vertex -2.1 -28 -2.1
      vertex -10 -28 -5
      vertex -10 -28 5
    endloop
  endfacet
  facet normal 0 1 0
    outer loop
      vertex -10 -28 -5
      vertex -2.1 -28 -2.1
      vertex 10 -28 -5
    endloop
  endfacet
  facet normal 0.994522 -0.104529 0
    outer loop
      vertex 9.78148 -2.07912 2.1
      vertex 10 0 -2.1
      vertex 10 0 2.1
    endloop
  endfacet
  facet normal 0.994522 -0.104529 0
    outer loop
      vertex 10 0 -2.1
      vertex 9.78148 -2.07912 2.1
      vertex 9.78148 -2.07912 -2.1
    endloop
  endfacet
  facet normal -0.994522 0.104529 0
    outer loop
      vertex -10 0 -2.1
      vertex -9.82483 1.66667 2.1
      vertex -9.82483 1.66667 -2.1
    endloop
  endfacet
  facet normal -0.994522 0.104529 0
    outer loop
      vertex -9.82483 1.66667 2.1
      vertex -10 0 -2.1
      vertex -10 0 2.1
    endloop
  endfacet
  facet normal -1 0 0
    outer loop
      vertex -10 -30 -5
      vertex -10 -28 5
      vertex -10 -28 -5
    endloop
  endfacet
  facet normal -1 -0 0
    outer loop
      vertex -10 -28 5
      vertex -10 -30 -5
      vertex -10 -30 5
    endloop
  endfacet
  facet normal -0 0 1
    outer loop
      vertex -10 -28 5
      vertex 10 -30 5
      vertex 10 -28 5
    endloop
  endfacet
  facet normal 0 0 1
    outer loop
      vertex 10 -30 5
      vertex -10 -28 5
      vertex -10 -30 5
    endloop
  endfacet
  facet normal 1 -0 0
    outer loop
      vertex 10 -30 5
      vertex 10 -28 -5
      vertex 10 -28 5
    endloop
  endfacet
  facet normal 1 0 0
    outer loop
      vertex 10 -28 -5
      vertex 10 -30 5
      vertex 10 -30 -5
    endloop
  endfacet
  facet normal 0 0 -1
    outer loop
      vertex -10 -30 -5
      vertex 10 -28 -5
      vertex 10 -30 -5
    endloop
  endfacet
  facet normal -0 0 -1
    outer loop
      vertex 10 -28 -5
      vertex -10 -30 -5
      vertex -10 -28 -5
    endloop
  endfacet
  facet normal 0 -1 0
    outer loop
      vertex -10 -30 -5
      vertex 10 -30 5
      vertex -10 -30 5
    endloop
  endfacet
  facet normal 0 -1 -0
    outer loop
      vertex 10 -30 5
      vertex -10 -30 -5
      vertex 10 -30 -5
    endloop
  endfacet
endsolid OpenSCAD_Model
